<svg width="321" height="429" viewBox="0 0 321 429" fill="none" xmlns="http://www.w3.org/2000/svg">
<path d="M320.569 428.304C320.569 428.449 248.801 428.573 160.3 428.573C71.7991 428.573 0 428.449 0 428.304C0 428.16 71.7577 428.036 160.3 428.036C248.842 428.036 320.569 428.17 320.569 428.304Z" fill="#263238"/>
<path d="M250.641 301.78C234.673 290.628 231.055 269.927 231.686 251.313C231.789 248.212 231.448 244.926 232.926 242.207C234.404 239.489 237.856 237.619 240.636 238.921C242.941 240.006 243.943 242.693 245.235 244.915C246.959 247.875 249.485 250.286 252.522 251.871C254.496 252.904 256.945 253.525 258.898 252.45C261.586 250.972 261.896 247.282 261.875 244.182C261.875 238.414 261.841 232.654 261.772 226.901C261.586 223.812 261.9 220.713 262.702 217.723C263.663 214.788 265.802 212.07 268.727 211.243C271.652 210.416 275.3 212.122 275.962 215.139C276.076 216.418 276.107 217.702 276.055 218.984C276.138 220.276 276.737 221.692 277.946 222.085C279.156 222.477 280.416 221.578 281.347 220.669C284.53 217.568 286.7 213.527 288.716 209.538C290.731 205.548 292.705 201.445 295.599 198.045C298.493 194.645 302.493 191.947 306.968 191.689C311.443 191.43 316.104 194.179 317.22 198.52C318.337 202.861 315.804 207.295 313.086 210.819C308.984 216.051 304.149 220.663 298.73 224.513C297.673 225.091 296.829 225.993 296.322 227.087C295.651 229.154 297.604 231.221 299.64 231.872C301.945 232.637 304.446 232.399 306.875 232.689C309.303 232.978 311.887 234.032 312.807 236.306C314.068 239.469 311.422 242.776 308.828 244.946C303.619 249.287 297.704 252.702 291.341 255.044C289.067 255.871 286.68 256.605 284.84 258.196C283 259.788 281.905 262.568 283.011 264.749C284.116 266.929 286.959 267.622 289.346 267.177C291.734 266.733 293.852 265.451 296.126 264.594C300.374 262.992 305.852 263.281 308.528 266.95C309.358 268.214 309.883 269.653 310.062 271.154C310.241 272.655 310.07 274.177 309.562 275.601C308.527 278.434 306.935 281.031 304.88 283.238C298.111 291.326 289.316 297.471 279.393 301.046C269.544 304.457 260.418 305.387 250.63 301.801" fill="#4CAF4F"/>
<path d="M312.673 194.242C312.673 194.242 312.58 194.345 312.373 194.531L311.453 195.347C310.647 196.071 309.459 197.125 307.96 198.52C303.711 202.465 299.765 206.725 296.157 211.264C293.852 214.127 291.465 217.372 288.922 220.896C286.38 224.42 283.755 228.224 281.15 232.265C278.374 236.526 275.831 240.936 273.533 245.473C272.334 247.84 271.28 250.31 270.195 252.832L266.991 260.532C262.768 270.231 259.089 280.158 255.974 290.266C253.464 298.537 251.734 307.025 250.806 315.619C250.205 321.418 250.108 327.259 250.517 333.075C250.682 335.142 250.837 336.723 250.982 337.798C251.044 338.315 251.085 338.729 251.126 339.028V339.452C251.082 339.318 251.051 339.179 251.033 339.039C250.982 338.739 250.92 338.336 250.837 337.819C250.651 336.785 250.455 335.153 250.268 333.085C249.77 327.258 249.804 321.398 250.372 315.578C251.242 306.947 252.934 298.42 255.426 290.111C258.516 279.974 262.184 270.022 266.412 260.305L269.699 252.636C270.784 250.124 271.848 247.633 273.058 245.256C275.371 240.705 277.935 236.285 280.737 232.017C283.383 227.883 286.049 224.141 288.561 220.648C291.072 217.155 293.501 213.889 295.795 211.036C299.44 206.51 303.439 202.28 307.753 198.386C309.283 197.011 310.502 195.978 311.329 195.285L312.29 194.51C312.408 194.408 312.536 194.318 312.673 194.242Z" fill="#263238"/>
<path d="M273.192 245.236C273.046 244.81 272.946 244.37 272.892 243.923C272.727 243.065 272.541 241.856 272.324 240.285C271.879 237.185 271.425 232.937 270.939 228.234C270.453 223.532 269.905 219.274 269.451 216.204C269.213 214.674 269.006 213.444 268.862 212.587C268.749 212.148 268.69 211.696 268.686 211.243C268.864 211.657 268.992 212.091 269.068 212.535C269.296 213.382 269.554 214.602 269.843 216.142C270.433 219.243 271.011 223.459 271.497 228.172C271.983 232.885 272.396 237.019 272.717 240.233C272.872 241.68 273.006 242.91 273.109 243.892C273.19 244.335 273.217 244.786 273.192 245.236Z" fill="#263238"/>
<path d="M312.962 237.815C312.459 237.925 311.947 237.987 311.433 238.001C310.399 238.094 308.931 238.218 307.112 238.425C303.474 238.818 298.472 239.541 292.984 240.575C287.496 241.608 282.566 242.776 279.021 243.675C277.254 244.13 275.828 244.543 274.887 244.822C274.385 245.001 273.865 245.125 273.337 245.194C273.814 244.954 274.312 244.757 274.825 244.605C275.797 244.264 277.202 243.789 278.959 243.282C282.483 242.249 287.413 241.019 292.922 239.965C297.588 239.072 302.297 238.417 307.03 238.001C308.859 237.846 310.337 237.784 311.371 237.763C311.901 237.727 312.435 237.745 312.962 237.815Z" fill="#263238"/>
<path d="M255.932 289.388C255.822 289.238 255.732 289.075 255.663 288.902L254.981 287.466C254.392 286.215 253.596 284.365 252.646 282.102C250.723 277.554 248.274 271.188 245.669 264.118C243.065 257.049 240.667 250.682 238.848 246.083C237.959 243.851 237.225 242.021 236.678 240.657L236.099 239.179C236.019 239.009 235.963 238.828 235.933 238.642C236.044 238.791 236.134 238.955 236.202 239.128L236.884 240.564C237.463 241.815 238.269 243.665 239.22 245.928C241.142 250.476 243.592 256.842 246.196 263.912C248.801 270.981 251.199 277.347 253.018 281.947C253.906 284.179 254.64 286.008 255.178 287.373C255.415 287.962 255.612 288.406 255.767 288.851C255.847 289.021 255.903 289.202 255.932 289.388Z" fill="#263238"/>
<path d="M308.725 272.366C308.559 272.461 308.382 272.534 308.198 272.583L306.668 273.1L301.015 274.929C296.24 276.479 289.646 278.691 282.411 281.13C275.176 283.569 268.552 285.74 263.746 287.187C261.348 287.92 259.395 288.478 258.041 288.851L256.48 289.254C256.298 289.311 256.111 289.349 255.922 289.367C256.087 289.272 256.265 289.199 256.449 289.15L257.979 288.633L263.632 286.804C268.407 285.254 275.001 283.042 282.235 280.603C289.47 278.164 296.085 275.993 300.891 274.547C303.299 273.813 305.242 273.255 306.606 272.883L308.167 272.479C308.348 272.422 308.535 272.384 308.725 272.366Z" fill="#263238"/>
<path d="M287.186 21.6633L281.863 23.5649L279.579 16.6093C275.383 3.78325 262.009 -3.02769 249.721 1.30279C237.432 5.63326 230.89 19.6996 235.086 32.5256L237.37 39.4813L232.027 41.3933C229.989 42.1836 228.335 43.7286 227.407 45.7073C226.479 47.6861 226.35 49.9462 227.045 52.0179L241.856 97.276C242.163 98.3016 242.673 99.255 243.357 100.079C244.04 100.904 244.882 101.583 245.832 102.075C246.783 102.568 247.823 102.864 248.89 102.947C249.958 103.03 251.031 102.897 252.046 102.557L307.205 82.8274C309.27 82.0384 310.948 80.4797 311.887 78.4789C312.825 76.4781 312.951 74.1913 312.239 72.0993L297.418 26.8412C297.102 25.8185 296.584 24.8698 295.894 24.0517C295.204 23.2337 294.356 22.563 293.401 22.0797C292.446 21.5965 291.404 21.3105 290.336 21.239C289.268 21.1674 288.197 21.3117 287.186 21.6633ZM245.142 28.8979C244.011 25.563 244.214 21.9196 245.709 18.731C247.204 15.5424 249.875 13.0562 253.162 11.7931C254.786 11.2377 256.504 11.015 258.215 11.1382C259.926 11.2615 261.595 11.7282 263.122 12.5104C264.649 13.2927 266.003 14.3745 267.103 15.6914C268.202 17.0082 269.025 18.5331 269.523 20.175L271.797 27.1306L247.416 35.8536L245.142 28.8979ZM276.148 69.0608L279.931 80.6156C280 80.8473 279.978 81.0968 279.868 81.3124C279.758 81.528 279.57 81.693 279.342 81.7731L274.04 83.6645C273.829 83.723 273.603 83.6976 273.41 83.5935C273.218 83.4895 273.073 83.3149 273.006 83.1064L269.192 71.6033C267.089 71.4887 265.072 70.7344 263.409 69.4415C261.747 68.1485 260.519 66.3785 259.891 64.3686C258.992 61.7113 259.156 58.8093 260.348 56.2702C261.541 53.7311 263.669 51.7518 266.288 50.7467C267.581 50.3049 268.95 50.1279 270.313 50.2264C271.676 50.3248 273.005 50.6966 274.221 51.3197C275.437 51.9427 276.516 52.8042 277.392 53.8528C278.268 54.9014 278.924 56.1157 279.321 57.4233C279.986 59.465 280.041 61.6565 279.479 63.729C278.917 65.8016 277.763 67.6653 276.158 69.0918L276.148 69.0608Z" fill="#4CAF4F"/>
<path d="M281.626 23.4409C281.626 23.5856 271.755 27.296 259.477 31.7091C247.199 36.1223 237.184 39.6673 237.132 39.5639C237.081 39.4606 247.002 35.7192 259.291 31.2957C271.58 26.8722 281.574 23.3066 281.626 23.4409Z" fill="#263238"/>
<path d="M293.346 25.3426C293.391 25.4323 293.429 25.5257 293.459 25.6217C293.542 25.8284 293.635 26.0971 293.759 26.4278C294.028 27.1823 294.4 28.2262 294.865 29.5284L298.834 41.0832C300.487 45.9821 302.461 51.7906 304.653 58.2398C305.686 61.4747 306.906 64.844 308.043 68.389C308.651 70.2158 308.914 72.14 308.818 74.0631C308.73 75.0632 308.446 76.0361 307.981 76.9259C307.484 77.8127 306.821 78.5953 306.027 79.2307C304.43 80.3963 302.658 81.2999 300.777 81.9075L295.454 83.8195L285.377 87.4265L268.314 93.5037L256.79 97.5551L253.689 98.5886L252.863 98.8573C252.774 98.8967 252.68 98.9211 252.583 98.9297C252.583 98.9297 252.666 98.9297 252.842 98.8057L253.648 98.4853L256.749 97.3174L268.21 93.1006L285.243 86.8995L295.299 83.2614L300.622 81.3391C302.45 80.7561 304.17 79.88 305.717 78.7449C306.455 78.1554 307.073 77.429 307.536 76.6055C307.974 75.7826 308.238 74.8785 308.311 73.9494C308.406 72.0965 308.154 70.2421 307.567 68.482C306.451 64.968 305.273 61.5677 304.208 58.3328C302.058 51.8732 300.074 46.0442 298.503 41.1452C296.932 36.2463 295.609 32.3086 294.7 29.5387C294.266 28.1848 293.935 27.1306 293.666 26.3658L293.418 25.539C293.387 25.4764 293.363 25.4105 293.346 25.3426Z" fill="#263238"/>
<path d="M264.242 11.0903C264.242 11.0903 263.694 10.8216 262.681 10.4082C261.237 9.85344 259.71 9.54596 258.165 9.49865C255.873 9.42008 253.593 9.85073 251.488 10.7596C248.928 11.8912 246.74 13.7217 245.173 16.0409C243.596 18.3534 242.75 21.0863 242.744 23.8853C242.766 26.1795 243.114 28.4589 243.778 30.6549C244.315 32.536 244.873 34.0346 245.246 35.0784C245.465 35.6086 245.645 36.1545 245.783 36.7114C245.489 36.2157 245.244 35.6931 245.049 35.1508C244.625 34.1173 244.016 32.6497 243.416 30.7583C242.68 28.5392 242.28 26.2227 242.228 23.8853C242.2 20.9805 243.066 18.1374 244.708 15.7412C246.329 13.3373 248.607 11.4502 251.271 10.3048C253.442 9.39099 255.793 8.98789 258.144 9.12658C259.723 9.20708 261.275 9.57482 262.722 10.2118C263.109 10.3903 263.483 10.5976 263.839 10.8319C263.986 10.8965 264.122 10.9837 264.242 11.0903Z" fill="#263238"/>
<path d="M264.717 51.5322C264.882 51.4322 265.055 51.3458 265.234 51.2738C265.751 51.0403 266.287 50.8502 266.836 50.7054C267.707 50.4482 268.606 50.2956 269.513 50.2506C270.747 50.1843 271.981 50.3707 273.14 50.7984C275.786 51.7286 278.215 54.4261 279.414 58.0331C279.989 59.9688 279.989 62.0298 279.414 63.9655C278.776 66.0664 277.634 67.9791 276.086 69.5362L276.148 69.2572C277.523 73.0295 279.021 77.1223 280.571 81.3908L280.664 81.6491L280.406 81.7422L278.039 82.5276L272.872 84.2536L272.613 84.3363L272.531 84.0779C271.115 79.7991 269.564 75.8097 268.396 71.8927L268.624 72.0683C266.603 71.9005 264.677 71.1421 263.084 69.8876C261.643 68.7778 260.462 67.3669 259.622 65.7535C258.864 64.3227 258.487 62.7212 258.526 61.1026C258.574 59.4484 258.987 57.8253 259.736 56.3494C260.484 54.8735 261.55 53.5814 262.857 52.5657C263.395 52.1291 263.998 51.7803 264.645 51.5322C264.061 51.8786 263.495 52.2546 262.95 52.6587C261.515 53.873 260.415 55.4352 259.756 57.1959C259.191 58.5236 258.926 59.9601 258.982 61.4021C259.037 62.8441 259.411 64.256 260.077 65.5365C260.902 67.0886 262.055 68.4428 263.456 69.5052C264.976 70.6977 266.812 71.4165 268.738 71.5723H268.913L268.965 71.7273C270.102 75.572 271.662 79.5924 273.099 83.8919L272.758 83.7265L277.926 82.0005L280.282 81.2047L280.117 81.5561C278.577 77.2877 277.088 73.1846 275.724 69.4122V69.2572L275.848 69.1331C277.351 67.6406 278.471 65.8076 279.114 63.7898C279.662 61.9382 279.662 59.9674 279.114 58.1157C277.988 54.6431 275.662 52.0076 273.14 51.0774C272.024 50.647 270.832 50.4466 269.637 50.4883C268.744 50.5088 267.856 50.6301 266.991 50.85C265.451 51.2325 264.727 51.5839 264.717 51.5322Z" fill="#263238"/>
<path d="M232.771 349.953L129.532 349.477C123.57 349.444 117.865 347.047 113.669 342.811C109.474 338.574 107.131 332.846 107.156 326.884L108.252 68.0789C108.264 65.1252 108.858 62.2028 110 59.4788C111.142 56.7548 112.81 54.2826 114.909 52.2036C117.007 50.1246 119.494 48.4794 122.229 47.3623C124.963 46.2451 127.891 45.6778 130.844 45.6927L234.073 46.1682C240.035 46.1983 245.741 48.5934 249.939 52.8276C254.136 57.0617 256.481 62.7887 256.459 68.7507L255.364 327.546C255.352 330.5 254.757 333.424 253.615 336.149C252.473 338.874 250.806 341.348 248.708 343.428C246.61 345.509 244.123 347.156 241.388 348.276C238.654 349.395 235.726 349.965 232.771 349.953Z" fill="#455A64"/>
<path d="M233.918 55.0668H213.909C213.256 55.0789 212.612 55.2195 212.013 55.4806C211.415 55.7417 210.874 56.1181 210.421 56.5884C209.968 57.0587 209.612 57.6136 209.373 58.2215C209.135 58.8294 209.018 59.4783 209.031 60.1311V63.7588C209.043 64.4112 208.927 65.0595 208.688 65.6668C208.449 66.2741 208.093 66.8283 207.64 67.2978C207.187 67.7673 206.646 68.1427 206.047 68.4027C205.449 68.6626 204.805 68.802 204.153 68.8127L165.147 68.637C163.828 68.6019 162.576 68.0444 161.667 67.0871C160.758 66.1299 160.267 64.851 160.3 63.5314V59.9037C160.333 58.5859 159.843 57.3086 158.936 56.3516C158.03 55.3946 156.781 54.836 155.463 54.7981H148.425L130.906 54.7154C126.74 54.6906 122.733 56.3179 119.763 59.241C116.794 62.1641 115.103 66.1447 115.063 70.3114L114.029 322.926C114.019 324.993 114.417 327.042 115.199 328.955C115.982 330.869 117.133 332.609 118.588 334.077C120.043 335.546 121.773 336.713 123.679 337.513C125.585 338.313 127.63 338.729 129.697 338.739L232.719 339.214C234.788 339.224 236.838 338.826 238.752 338.043C240.667 337.26 242.409 336.108 243.878 334.652C245.347 333.196 246.516 331.465 247.316 329.558C248.116 327.65 248.533 325.604 248.542 323.536L249.576 70.9211C249.601 66.7427 247.965 62.7255 245.029 59.7525C242.093 56.7796 238.096 55.0942 233.918 55.0668Z" fill="white"/>
<path d="M220.058 305.511L143.453 305.18C142.658 305.18 142.017 304.312 142.027 303.258L142.11 283.218C142.11 282.184 142.761 281.295 143.557 281.295L220.162 281.647C220.603 281.723 220.997 281.967 221.263 282.327C221.529 282.687 221.645 283.136 221.588 283.58L221.516 303.599C221.516 304.663 220.854 305.521 220.058 305.511Z" fill="#4CAF4F"/>
<path d="M166.744 295.298C166.321 295.298 165.915 295.231 165.525 295.095C165.14 294.954 164.842 294.775 164.63 294.558L164.866 294.095C165.067 294.29 165.335 294.455 165.671 294.591C166.012 294.721 166.37 294.786 166.744 294.786C167.102 294.786 167.392 294.743 167.614 294.656C167.842 294.564 168.007 294.442 168.11 294.29C168.219 294.138 168.273 293.97 168.273 293.786C168.273 293.564 168.208 293.385 168.078 293.249C167.953 293.114 167.788 293.008 167.582 292.932C167.376 292.851 167.148 292.78 166.899 292.721C166.649 292.661 166.4 292.599 166.151 292.534C165.901 292.463 165.671 292.371 165.46 292.257C165.254 292.143 165.086 291.994 164.955 291.81C164.831 291.62 164.768 291.374 164.768 291.07C164.768 290.788 164.842 290.531 164.988 290.298C165.14 290.059 165.37 289.869 165.679 289.728C165.988 289.582 166.384 289.509 166.866 289.509C167.186 289.509 167.503 289.555 167.818 289.647C168.132 289.734 168.403 289.856 168.631 290.013L168.427 290.493C168.184 290.33 167.923 290.211 167.647 290.135C167.376 290.059 167.113 290.021 166.858 290.021C166.517 290.021 166.235 290.067 166.012 290.159C165.79 290.252 165.625 290.376 165.516 290.533C165.413 290.685 165.362 290.859 165.362 291.054C165.362 291.276 165.424 291.455 165.549 291.591C165.679 291.726 165.847 291.832 166.053 291.908C166.265 291.984 166.495 292.051 166.744 292.111C166.994 292.171 167.24 292.236 167.484 292.306C167.734 292.377 167.961 292.469 168.167 292.583C168.379 292.691 168.547 292.837 168.671 293.022C168.802 293.206 168.867 293.447 168.867 293.745C168.867 294.022 168.791 294.279 168.639 294.518C168.487 294.751 168.254 294.941 167.94 295.087C167.631 295.228 167.232 295.298 166.744 295.298ZM170.178 295.25V289.558H170.779V295.25H170.178ZM172.631 295.25V289.558H173.127L177.055 294.502H176.794V289.558H177.388V295.25H176.892L172.973 290.306H173.233V295.25H172.631ZM181.742 295.298C181.309 295.298 180.907 295.228 180.539 295.087C180.176 294.941 179.858 294.737 179.587 294.477C179.322 294.217 179.113 293.911 178.961 293.558C178.815 293.206 178.742 292.821 178.742 292.404C178.742 291.986 178.815 291.601 178.961 291.249C179.113 290.897 179.324 290.59 179.596 290.33C179.867 290.07 180.184 289.869 180.547 289.728C180.916 289.582 181.317 289.509 181.75 289.509C182.184 289.509 182.58 289.577 182.937 289.712C183.301 289.848 183.61 290.054 183.864 290.33L183.49 290.712C183.252 290.474 182.989 290.303 182.702 290.2C182.414 290.097 182.105 290.046 181.775 290.046C181.422 290.046 181.097 290.105 180.799 290.224C180.506 290.338 180.249 290.504 180.026 290.72C179.81 290.932 179.639 291.181 179.514 291.469C179.395 291.75 179.335 292.062 179.335 292.404C179.335 292.74 179.395 293.051 179.514 293.339C179.639 293.626 179.81 293.878 180.026 294.095C180.249 294.306 180.506 294.472 180.799 294.591C181.097 294.705 181.42 294.762 181.767 294.762C182.092 294.762 182.398 294.713 182.685 294.615C182.978 294.518 183.246 294.352 183.49 294.119L183.832 294.575C183.561 294.813 183.244 294.995 182.881 295.12C182.517 295.239 182.138 295.298 181.742 295.298ZM183.255 294.502V292.404H183.832V294.575L183.255 294.502ZM189.956 295.298C189.23 295.298 188.658 295.09 188.24 294.672C187.823 294.255 187.614 293.637 187.614 292.818V289.558H188.216V292.794C188.216 293.466 188.368 293.962 188.671 294.282C188.975 294.602 189.403 294.762 189.956 294.762C190.514 294.762 190.945 294.602 191.249 294.282C191.553 293.962 191.704 293.466 191.704 292.794V289.558H192.29V292.818C192.29 293.637 192.081 294.255 191.664 294.672C191.252 295.09 190.682 295.298 189.956 295.298ZM194.103 295.25V289.558H196.233C196.716 289.558 197.131 289.636 197.477 289.794C197.824 289.945 198.09 290.168 198.274 290.46C198.464 290.748 198.559 291.097 198.559 291.509C198.559 291.91 198.464 292.257 198.274 292.55C198.09 292.837 197.824 293.06 197.477 293.217C197.131 293.374 196.716 293.453 196.233 293.453H194.436L194.705 293.168V295.25H194.103ZM194.705 293.217L194.436 292.924H196.217C196.786 292.924 197.217 292.802 197.51 292.558C197.808 292.309 197.957 291.959 197.957 291.509C197.957 291.054 197.808 290.702 197.51 290.452C197.217 290.203 196.786 290.078 196.217 290.078H194.436L194.705 289.794V293.217Z" fill="#E8E8E3"/>
<path d="M158.733 129.326L132.151 129.205L132.129 134.083L158.711 134.204L158.733 129.326Z" fill="#4CAF4F"/>
<path opacity="0.1" d="M158.733 129.326L132.151 129.205L132.129 134.083L158.711 134.204L158.733 129.326Z" fill="black"/>
<path d="M236.657 159.277C236.866 159.256 237.071 159.208 237.267 159.133C237.553 159.021 237.801 158.831 237.984 158.584C238.167 158.337 238.277 158.044 238.3 157.737C238.3 156.094 238.3 153.696 238.3 150.616C238.3 149.076 238.3 147.35 238.3 145.449C238.3 144.984 238.3 144.498 238.3 144.012C238.368 143.541 238.265 143.061 238.011 142.658C237.869 142.465 237.683 142.308 237.47 142.198C237.257 142.089 237.021 142.031 236.781 142.028H235.169H220.234L133.79 141.707C133.569 141.704 133.35 141.753 133.152 141.852C132.954 141.951 132.783 142.097 132.653 142.276C132.404 142.68 132.308 143.161 132.384 143.63C132.384 144.663 132.384 145.697 132.384 146.73C132.384 148.797 132.384 150.864 132.384 152.931C132.384 153.965 132.384 154.999 132.384 156.032C132.342 156.513 132.342 156.998 132.384 157.479C132.439 157.685 132.54 157.877 132.679 158.038C132.819 158.199 132.994 158.326 133.191 158.409C133.394 158.49 133.612 158.529 133.831 158.523H139.092L162.047 158.647L200.907 158.885L227.107 159.091L234.228 159.174H236.078C236.502 159.174 236.709 159.174 236.709 159.174H236.078H234.228H227.107H200.907L162.047 159.05L139.092 158.957H133.831C133.542 158.969 133.253 158.919 132.984 158.812C132.712 158.696 132.47 158.519 132.276 158.295C132.083 158.072 131.943 157.806 131.868 157.52C131.808 157.249 131.787 156.971 131.806 156.693V155.929C131.806 154.895 131.806 153.862 131.806 152.828C131.806 150.761 131.806 148.694 131.806 146.627C131.806 145.593 131.806 144.56 131.806 143.526C131.786 143.251 131.786 142.975 131.806 142.7C131.844 142.396 131.962 142.107 132.147 141.862C132.325 141.613 132.561 141.41 132.834 141.272C133.108 141.133 133.411 141.063 133.718 141.067L220.162 141.542L235.096 141.645H236.709C236.993 141.646 237.272 141.714 237.524 141.846C237.776 141.977 237.993 142.167 238.155 142.4C238.447 142.849 238.564 143.389 238.486 143.919C238.486 144.405 238.486 144.891 238.486 145.356C238.486 147.237 238.486 148.963 238.486 150.523C238.486 153.624 238.414 156.001 238.393 157.655C238.368 157.973 238.252 158.277 238.06 158.531C237.868 158.786 237.607 158.98 237.308 159.091C237.112 159.212 236.887 159.277 236.657 159.277Z" fill="#E0E0E0"/>
<path d="M188.753 146.896H140.136V151.454H188.753V146.896Z" fill="#4CAF4F"/>
<path opacity="0.2" d="M188.753 146.896H140.136V151.454H188.753V146.896Z" fill="white"/>
<path d="M158.552 173.828L131.97 173.708L131.948 178.586L158.53 178.706L158.552 173.828Z" fill="#4CAF4F"/>
<path opacity="0.1" d="M158.552 173.828L131.97 173.708L131.948 178.586L158.53 178.706L158.552 173.828Z" fill="black"/>
<path d="M235.985 203.781C236.194 203.755 236.401 203.717 236.605 203.667C236.894 203.575 237.16 203.423 237.384 203.219C237.609 203.016 237.787 202.767 237.907 202.489C238.07 202.072 238.134 201.622 238.094 201.176C238.094 200.68 238.094 200.143 238.094 199.543C238.094 198.345 238.094 196.98 238.094 195.409V188.847C238.143 188.371 238.038 187.893 237.794 187.482C237.539 187.061 237.138 186.748 236.667 186.604C236.152 186.512 235.628 186.484 235.107 186.521H220.234L134.09 186.201C133.626 186.202 133.179 186.371 132.831 186.677C132.483 186.983 132.259 187.405 132.198 187.865C132.198 188.847 132.198 189.932 132.198 190.965C132.198 193.032 132.198 195.099 132.198 197.166C132.198 198.2 132.198 199.233 132.198 200.267C132.16 200.75 132.181 201.236 132.26 201.714C132.389 202.133 132.655 202.497 133.015 202.747C133.397 202.99 133.845 203.105 134.296 203.078H135.733H138.72L161.592 203.192L200.318 203.43L226.425 203.636L233.525 203.719H226.425H200.318L161.571 203.678L138.699 203.595H134.203C133.644 203.628 133.09 203.479 132.622 203.171C132.152 202.845 131.809 202.367 131.651 201.817C131.558 201.292 131.53 200.758 131.568 200.226C131.568 199.192 131.568 198.159 131.568 197.125C131.568 195.058 131.568 192.991 131.568 190.924C131.568 189.89 131.568 188.857 131.568 187.823C131.643 187.232 131.932 186.689 132.379 186.295C132.826 185.902 133.401 185.684 133.997 185.684L220.141 186.159L235.014 186.273C235.567 186.239 236.123 186.277 236.667 186.387C237.204 186.562 237.657 186.93 237.939 187.42C238.206 187.875 238.322 188.404 238.269 188.929C238.269 189.415 238.269 189.89 238.269 190.366C238.269 192.236 238.269 193.952 238.269 195.533C238.269 197.115 238.269 198.448 238.269 199.668C238.269 200.257 238.269 200.804 238.269 201.311C238.307 201.773 238.232 202.237 238.052 202.665C237.918 202.95 237.724 203.203 237.483 203.406C237.242 203.609 236.961 203.758 236.657 203.843C236.431 203.862 236.204 203.841 235.985 203.781Z" fill="#E0E0E0"/>
<path d="M158.352 220.263L131.77 220.143L131.747 225.021L158.329 225.141L158.352 220.263Z" fill="#4CAF4F"/>
<path opacity="0.1" d="M158.352 220.263L131.77 220.143L131.747 225.021L158.329 225.141L158.352 220.263Z" fill="black"/>
<path d="M235.778 250.197C235.987 250.172 236.194 250.134 236.399 250.083C236.686 249.992 236.951 249.84 237.175 249.639C237.4 249.438 237.579 249.191 237.701 248.915C237.863 248.498 237.926 248.048 237.887 247.602C237.887 247.096 237.887 246.569 237.887 245.959C237.887 244.771 237.887 243.396 237.887 241.825V235.262C237.936 234.787 237.831 234.309 237.587 233.898C237.326 233.484 236.927 233.177 236.461 233.03C235.946 232.934 235.422 232.903 234.9 232.937H220.027L133.883 232.616C133.42 232.617 132.972 232.787 132.625 233.093C132.277 233.399 132.052 233.821 131.992 234.28C131.992 235.314 131.992 236.347 131.992 237.381C131.992 239.448 131.992 241.515 131.992 243.582C131.992 244.616 131.992 245.649 131.992 246.683C131.953 247.162 131.974 247.645 132.054 248.119C132.177 248.541 132.444 248.906 132.808 249.153C133.188 249.401 133.638 249.517 134.09 249.483H138.586L161.458 249.608L200.184 249.845L226.291 250.052L233.391 250.135H226.291H200.184L161.458 250.021L138.586 249.928H134.09C133.53 249.966 132.974 249.817 132.508 249.504C132.038 249.178 131.695 248.7 131.537 248.15C131.444 247.625 131.417 247.091 131.454 246.559C131.454 245.525 131.454 244.492 131.454 243.458C131.454 241.391 131.454 239.324 131.454 237.257C131.454 236.223 131.454 235.19 131.454 234.105C131.527 233.515 131.813 232.971 132.259 232.577C132.704 232.183 133.278 231.966 133.873 231.965L220.017 232.441L234.89 232.554C235.443 232.52 235.999 232.559 236.543 232.668C237.08 232.843 237.533 233.212 237.814 233.702C238.082 234.157 238.198 234.685 238.145 235.21C238.145 235.696 238.145 236.182 238.145 236.647C238.145 238.518 238.145 240.233 238.145 241.815C238.145 243.396 238.145 244.729 238.145 245.949C238.145 246.538 238.145 247.086 238.145 247.592C238.185 248.054 238.11 248.519 237.928 248.946C237.794 249.231 237.6 249.484 237.359 249.687C237.118 249.891 236.836 250.04 236.533 250.124C236.291 250.207 236.032 250.232 235.778 250.197Z" fill="#E0E0E0"/>
<path d="M187.715 192.688L139.099 192.467L139.078 197.025L187.694 197.246L187.715 192.688Z" fill="#4CAF4F"/>
<path opacity="0.2" d="M187.715 192.688L139.099 192.467L139.078 197.025L187.694 197.246L187.715 192.688Z" fill="white"/>
<path d="M143.495 241.763C143.464 242.179 143.312 242.576 143.058 242.907C142.804 243.237 142.458 243.485 142.064 243.621C141.669 243.756 141.244 243.773 140.84 243.669C140.437 243.565 140.073 243.345 139.793 243.036C139.513 242.727 139.33 242.342 139.267 241.93C139.204 241.518 139.263 241.097 139.437 240.718C139.611 240.339 139.892 240.02 140.246 239.8C140.6 239.579 141.011 239.468 141.428 239.479C142.004 239.511 142.543 239.769 142.93 240.196C143.317 240.624 143.52 241.187 143.495 241.763Z" fill="#4CAF4F"/>
<path d="M150.078 241.794C150.099 242.085 150.059 242.378 149.961 242.653C149.864 242.928 149.711 243.181 149.511 243.394C149.312 243.608 149.071 243.778 148.803 243.895C148.535 244.011 148.247 244.071 147.954 244.071C147.662 244.071 147.373 244.011 147.106 243.895C146.838 243.778 146.597 243.608 146.397 243.394C146.198 243.181 146.045 242.928 145.948 242.653C145.85 242.378 145.81 242.085 145.831 241.794C145.81 241.503 145.85 241.21 145.948 240.935C146.045 240.66 146.198 240.407 146.397 240.194C146.597 239.98 146.838 239.81 147.106 239.693C147.373 239.577 147.662 239.517 147.954 239.517C148.247 239.517 148.535 239.577 148.803 239.693C149.071 239.81 149.312 239.98 149.511 240.194C149.711 240.407 149.864 240.66 149.961 240.935C150.059 241.21 150.099 241.503 150.078 241.794Z" fill="#4CAF4F"/>
<path d="M156.672 241.825C156.642 242.241 156.49 242.638 156.236 242.969C155.981 243.299 155.635 243.547 155.241 243.683C154.847 243.818 154.422 243.835 154.018 243.731C153.614 243.627 153.25 243.407 152.97 243.098C152.691 242.789 152.508 242.404 152.445 241.992C152.381 241.58 152.44 241.159 152.614 240.78C152.789 240.401 153.07 240.082 153.424 239.862C153.778 239.641 154.189 239.53 154.605 239.541C155.18 239.576 155.718 239.834 156.105 240.261C156.491 240.688 156.695 241.25 156.672 241.825Z" fill="#4CAF4F"/>
<path d="M163.256 241.856C163.225 242.272 163.073 242.669 162.819 243C162.565 243.33 162.219 243.578 161.825 243.714C161.431 243.849 161.005 243.866 160.602 243.762C160.198 243.658 159.834 243.438 159.554 243.129C159.274 242.82 159.091 242.435 159.028 242.023C158.965 241.611 159.024 241.19 159.198 240.811C159.372 240.432 159.654 240.113 160.007 239.893C160.361 239.672 160.772 239.561 161.189 239.572C161.764 239.607 162.302 239.865 162.688 240.292C163.075 240.719 163.279 241.281 163.256 241.856Z" fill="#4CAF4F"/>
<path d="M169.839 241.877C169.811 242.293 169.661 242.692 169.407 243.024C169.154 243.355 168.809 243.605 168.415 243.742C168.021 243.879 167.595 243.898 167.19 243.795C166.786 243.692 166.421 243.472 166.14 243.163C165.859 242.855 165.675 242.47 165.611 242.058C165.547 241.645 165.606 241.223 165.78 240.844C165.954 240.465 166.235 240.145 166.59 239.924C166.944 239.703 167.355 239.592 167.772 239.603C168.345 239.638 168.882 239.895 169.268 240.32C169.654 240.744 169.859 241.303 169.839 241.877Z" fill="#4CAF4F"/>
<path d="M176.433 241.908C176.405 242.322 176.256 242.719 176.006 243.05C175.755 243.38 175.413 243.631 175.021 243.77C174.63 243.908 174.207 243.93 173.803 243.831C173.4 243.733 173.035 243.518 172.752 243.214C172.469 242.911 172.28 242.531 172.211 242.122C172.141 241.712 172.192 241.292 172.358 240.911C172.524 240.531 172.798 240.207 173.145 239.98C173.493 239.753 173.899 239.633 174.315 239.634C174.897 239.656 175.447 239.907 175.844 240.333C176.241 240.759 176.453 241.326 176.433 241.908Z" fill="#4CAF4F"/>
<path d="M183.017 241.939C183.037 242.23 182.997 242.523 182.9 242.798C182.802 243.073 182.649 243.326 182.45 243.539C182.251 243.753 182.01 243.923 181.742 244.04C181.474 244.156 181.185 244.216 180.893 244.216C180.601 244.216 180.312 244.156 180.044 244.04C179.776 243.923 179.535 243.753 179.336 243.539C179.137 243.326 178.984 243.073 178.886 242.798C178.789 242.523 178.749 242.23 178.769 241.939C178.749 241.647 178.789 241.355 178.886 241.08C178.984 240.804 179.137 240.552 179.336 240.338C179.535 240.125 179.776 239.954 180.044 239.838C180.312 239.722 180.601 239.661 180.893 239.661C181.185 239.661 181.474 239.722 181.742 239.838C182.01 239.954 182.251 240.125 182.45 240.338C182.649 240.552 182.802 240.804 182.9 241.08C182.997 241.355 183.037 241.647 183.017 241.939Z" fill="#4CAF4F"/>
<path d="M189.6 241.97C189.572 242.384 189.424 242.781 189.173 243.112C188.922 243.442 188.58 243.693 188.188 243.832C187.797 243.97 187.374 243.992 186.971 243.893C186.567 243.795 186.202 243.58 185.919 243.276C185.636 242.973 185.448 242.593 185.378 242.184C185.308 241.774 185.359 241.354 185.525 240.973C185.691 240.593 185.965 240.269 186.312 240.042C186.66 239.815 187.067 239.695 187.482 239.696C188.064 239.718 188.614 239.969 189.011 240.395C189.408 240.821 189.62 241.388 189.6 241.97Z" fill="#4CAF4F"/>
<path d="M196.184 242.001C196.155 242.417 196.005 242.816 195.752 243.148C195.499 243.479 195.153 243.729 194.759 243.866C194.365 244.003 193.939 244.022 193.535 243.919C193.131 243.816 192.765 243.596 192.485 243.287C192.204 242.979 192.02 242.594 191.956 242.182C191.892 241.769 191.951 241.347 192.125 240.968C192.299 240.589 192.58 240.269 192.934 240.048C193.289 239.828 193.7 239.716 194.117 239.727C194.69 239.762 195.227 240.019 195.613 240.444C195.999 240.868 196.204 241.427 196.184 242.001Z" fill="#4CAF4F"/>
<g opacity="0.2">
<path d="M143.495 241.763C143.464 242.179 143.312 242.576 143.058 242.907C142.804 243.237 142.458 243.485 142.064 243.621C141.669 243.756 141.244 243.773 140.84 243.669C140.437 243.565 140.073 243.345 139.793 243.036C139.513 242.727 139.33 242.342 139.267 241.93C139.204 241.518 139.263 241.097 139.437 240.718C139.611 240.339 139.892 240.02 140.246 239.8C140.6 239.579 141.011 239.468 141.428 239.479C142.004 239.511 142.543 239.769 142.93 240.196C143.317 240.624 143.52 241.187 143.495 241.763Z" fill="white"/>
<path d="M150.078 241.794C150.099 242.085 150.059 242.378 149.961 242.653C149.864 242.928 149.711 243.181 149.511 243.394C149.312 243.608 149.071 243.778 148.803 243.895C148.535 244.011 148.247 244.071 147.954 244.071C147.662 244.071 147.373 244.011 147.106 243.895C146.838 243.778 146.597 243.608 146.397 243.394C146.198 243.181 146.045 242.928 145.948 242.653C145.85 242.378 145.81 242.085 145.831 241.794C145.81 241.503 145.85 241.21 145.948 240.935C146.045 240.66 146.198 240.407 146.397 240.194C146.597 239.98 146.838 239.81 147.106 239.693C147.373 239.577 147.662 239.517 147.954 239.517C148.247 239.517 148.535 239.577 148.803 239.693C149.071 239.81 149.312 239.98 149.511 240.194C149.711 240.407 149.864 240.66 149.961 240.935C150.059 241.21 150.099 241.503 150.078 241.794Z" fill="white"/>
<path d="M156.672 241.825C156.642 242.241 156.49 242.638 156.236 242.969C155.981 243.299 155.635 243.547 155.241 243.683C154.847 243.818 154.422 243.835 154.018 243.731C153.614 243.627 153.25 243.407 152.97 243.098C152.691 242.789 152.508 242.404 152.445 241.992C152.381 241.58 152.44 241.159 152.614 240.78C152.789 240.401 153.07 240.082 153.424 239.862C153.778 239.641 154.189 239.53 154.605 239.541C155.18 239.576 155.718 239.834 156.105 240.261C156.491 240.688 156.695 241.25 156.672 241.825Z" fill="white"/>
<path d="M163.256 241.856C163.225 242.272 163.073 242.669 162.819 243C162.565 243.33 162.219 243.578 161.825 243.714C161.431 243.849 161.005 243.866 160.602 243.762C160.198 243.658 159.834 243.438 159.554 243.129C159.274 242.82 159.091 242.435 159.028 242.023C158.965 241.611 159.024 241.19 159.198 240.811C159.372 240.432 159.654 240.113 160.007 239.893C160.361 239.672 160.772 239.561 161.189 239.572C161.764 239.607 162.302 239.865 162.688 240.292C163.075 240.719 163.279 241.281 163.256 241.856Z" fill="white"/>
<path d="M169.839 241.877C169.811 242.293 169.661 242.692 169.407 243.024C169.154 243.355 168.809 243.605 168.415 243.742C168.021 243.879 167.595 243.898 167.19 243.795C166.786 243.692 166.421 243.472 166.14 243.163C165.859 242.855 165.675 242.47 165.611 242.058C165.547 241.645 165.606 241.223 165.78 240.844C165.954 240.465 166.235 240.145 166.59 239.924C166.944 239.703 167.355 239.592 167.772 239.603C168.345 239.638 168.882 239.895 169.268 240.32C169.654 240.744 169.859 241.303 169.839 241.877Z" fill="white"/>
<path d="M176.433 241.908C176.405 242.322 176.256 242.719 176.005 243.05C175.755 243.38 175.413 243.631 175.021 243.77C174.63 243.908 174.207 243.93 173.803 243.831C173.4 243.733 173.035 243.518 172.751 243.214C172.468 242.911 172.28 242.531 172.21 242.122C172.141 241.712 172.192 241.292 172.358 240.911C172.524 240.531 172.798 240.207 173.145 239.98C173.493 239.753 173.899 239.633 174.315 239.634C174.897 239.656 175.447 239.907 175.844 240.333C176.241 240.759 176.453 241.326 176.433 241.908Z" fill="white"/>
<path d="M183.017 241.939C183.037 242.23 182.997 242.523 182.9 242.798C182.802 243.073 182.649 243.326 182.45 243.539C182.251 243.753 182.01 243.923 181.742 244.04C181.474 244.156 181.185 244.216 180.893 244.216C180.601 244.216 180.312 244.156 180.044 244.04C179.776 243.923 179.535 243.753 179.336 243.539C179.137 243.326 178.984 243.073 178.886 242.798C178.789 242.523 178.749 242.23 178.769 241.939C178.749 241.647 178.789 241.355 178.886 241.08C178.984 240.804 179.137 240.552 179.336 240.338C179.535 240.125 179.776 239.954 180.044 239.838C180.312 239.722 180.601 239.661 180.893 239.661C181.185 239.661 181.474 239.722 181.742 239.838C182.01 239.954 182.251 240.125 182.45 240.338C182.649 240.552 182.802 240.804 182.9 241.08C182.997 241.355 183.037 241.647 183.017 241.939Z" fill="white"/>
<path d="M189.6 241.97C189.572 242.384 189.424 242.781 189.173 243.112C188.922 243.442 188.58 243.693 188.188 243.832C187.797 243.97 187.374 243.992 186.971 243.893C186.567 243.795 186.202 243.58 185.919 243.277C185.636 242.973 185.448 242.593 185.378 242.184C185.308 241.774 185.359 241.354 185.525 240.973C185.691 240.593 185.965 240.269 186.312 240.042C186.66 239.815 187.067 239.695 187.482 239.696C188.064 239.718 188.614 239.969 189.011 240.395C189.408 240.821 189.62 241.388 189.6 241.97Z" fill="white"/>
<path d="M196.184 242.001C196.155 242.417 196.005 242.816 195.752 243.148C195.499 243.479 195.153 243.729 194.759 243.866C194.365 244.003 193.939 244.022 193.535 243.919C193.131 243.816 192.765 243.596 192.485 243.287C192.204 242.979 192.02 242.594 191.956 242.182C191.892 241.769 191.951 241.347 192.125 240.968C192.299 240.589 192.58 240.269 192.934 240.048C193.289 239.828 193.7 239.716 194.117 239.727C194.69 239.762 195.227 240.019 195.613 240.444C195.999 240.868 196.204 241.427 196.184 242.001Z" fill="white"/>
</g>
<path d="M186.831 92.8009C187.549 92.4847 188.158 91.9644 188.582 91.3047C189.007 90.645 189.228 89.875 189.218 89.0905C189.245 88.5806 189.167 88.0706 188.991 87.5915C188.814 87.1124 188.542 86.6743 188.19 86.3039C187.839 85.9335 187.415 85.6385 186.946 85.4369C186.477 85.2353 185.972 85.1314 185.461 85.1314C184.951 85.1314 184.445 85.2353 183.976 85.4369C183.507 85.6385 183.084 85.9335 182.732 86.3039C182.381 86.6743 182.108 87.1124 181.932 87.5915C181.755 88.0706 181.678 88.5806 181.704 89.0905C181.689 89.8828 181.908 90.662 182.335 91.3297C182.761 91.9975 183.376 92.5238 184.102 92.8422C178.314 93.7104 178.573 99.9942 178.573 99.9942L192.257 100.056C192.257 100.056 192.577 93.6587 186.831 92.8009Z" fill="#4CAF4F"/>
<path opacity="0.1" d="M186.831 92.8009C187.549 92.4847 188.158 91.9644 188.582 91.3047C189.007 90.645 189.228 89.875 189.218 89.0905C189.245 88.5806 189.167 88.0706 188.991 87.5915C188.814 87.1124 188.542 86.6743 188.19 86.3039C187.839 85.9335 187.415 85.6385 186.946 85.4369C186.477 85.2353 185.972 85.1314 185.461 85.1314C184.951 85.1314 184.445 85.2353 183.976 85.4369C183.507 85.6385 183.084 85.9335 182.732 86.3039C182.381 86.6743 182.108 87.1124 181.932 87.5915C181.755 88.0706 181.678 88.5806 181.704 89.0905C181.689 89.8828 181.908 90.662 182.335 91.3297C182.761 91.9975 183.376 92.5238 184.102 92.8422C178.314 93.7104 178.573 99.9942 178.573 99.9942L192.257 100.056C192.257 100.056 192.577 93.6587 186.831 92.8009Z" fill="black"/>
<path d="M209.066 104.109L160.295 103.888L160.268 109.717L209.04 109.938L209.066 104.109Z" fill="#4CAF4F"/>
<path opacity="0.2" d="M209.066 104.109L160.295 103.888L160.268 109.717L209.04 109.938L209.066 104.109Z" fill="white"/>
<path d="M29.7656 134.318H29.2798L27.8742 134.421C27.1135 134.467 26.3571 134.567 25.6108 134.721C25.1274 134.789 24.6478 134.882 24.1742 135L22.5722 135.444C19.8456 136.281 17.273 137.555 14.9551 139.217C11.8927 141.439 9.33547 144.285 7.45172 147.567C6.34454 149.459 5.46345 151.475 4.82656 153.572C4.15735 155.852 3.77204 158.205 3.67936 160.58C3.61776 161.827 3.63847 163.077 3.74137 164.321C3.74137 164.951 3.91707 165.582 3.99975 166.223C4.06929 166.869 4.19025 167.508 4.36148 168.135C5.29085 172.282 7.17657 176.155 9.86822 179.444C12.5599 182.733 15.9829 185.348 19.8644 187.079C22.6736 188.291 25.6846 188.968 28.7424 189.074C31.9006 189.248 35.0619 188.794 38.0441 187.741L38.9536 187.4H39.0776L39.181 187.462L52.2138 194.076L51.8314 194.407C50.4361 190.087 49.0925 185.901 47.7903 181.881V181.726L47.904 181.612C51.0655 178.427 53.4125 174.528 54.7459 170.243C55.9536 166.326 56.306 162.195 55.7794 158.13C55.311 154.517 54.1494 151.029 52.3585 147.857C50.8147 145.132 48.8231 142.686 46.4674 140.622C44.5238 138.989 42.3726 137.619 40.0698 136.55C38.3274 135.799 36.5128 135.227 34.6541 134.845L32.5871 134.504L31.0885 134.39L30.179 134.328H29.8689C29.972 134.317 30.0759 134.317 30.179 134.328H31.0988L32.5974 134.39L34.6645 134.69C36.5462 135.044 38.3856 135.595 40.1525 136.333C42.4948 137.39 44.6848 138.756 46.6637 140.395C49.0628 142.45 51.0966 144.896 52.6788 147.629C54.5206 150.836 55.7179 154.371 56.2032 158.037C56.7735 162.165 56.4456 166.367 55.242 170.357C53.8999 174.73 51.5166 178.713 48.2967 181.963L48.3587 181.695C49.661 185.715 51.0149 189.901 52.4205 194.211L52.6168 194.841L52.0277 194.541L38.9949 187.937H39.2223L38.2922 188.278C35.2525 189.348 32.0327 189.811 28.8147 189.642C25.6911 189.523 22.6171 188.822 19.7507 187.575C14.283 185.234 9.73398 181.164 6.8006 175.989C5.45073 173.6 4.46492 171.022 3.87572 168.341C3.71438 167.698 3.59356 167.046 3.51399 166.388C3.43131 165.737 3.29695 165.096 3.26595 164.455C2.98623 160.778 3.37491 157.08 4.41316 153.541C5.0659 151.415 5.97154 149.375 7.11066 147.464C9.03934 144.152 11.6498 141.288 14.7691 139.062C17.1252 137.396 19.7409 136.131 22.5102 135.32L24.1328 134.907C24.6104 134.796 25.0934 134.71 25.5798 134.648C26.3339 134.509 27.0974 134.426 27.8639 134.4L29.2798 134.349C29.4408 134.327 29.6031 134.317 29.7656 134.318Z" fill="#4CAF4F"/>
<path d="M35.6566 158.419H33.7446L29.6105 152.611V148.797C29.6105 148.797 26.6546 148.611 27.006 153.603C27.3574 158.595 27.006 157.324 27.006 157.324C27.006 157.324 20.7325 157.324 20.2157 157.892C19.699 158.461 19.668 164.517 19.5956 167.897C19.556 168.712 19.7898 169.516 20.2598 170.183C20.7298 170.849 21.4091 171.34 22.1898 171.576C22.4086 171.637 22.6345 171.668 22.8616 171.669C24.4325 171.669 32.4217 170.398 32.4217 170.398H35.7186L35.6566 158.419Z" fill="#4CAF4F"/>
<path d="M41.124 157.396L39.9458 170.46H36.6799V157.665L41.124 157.396Z" fill="#4CAF4F"/>
<path d="M80.0776 423.354V414.517L64.2336 414.403L64.0992 427.767L65.0811 427.839C69.4529 428.118 87.3226 428.532 90.2578 427.622C93.5237 426.609 80.0776 423.354 80.0776 423.354Z" fill="#4CAF4F"/>
<path d="M90.6299 426.795C90.6299 426.94 84.6974 427.064 77.3904 427.064C70.0834 427.064 64.1509 426.94 64.1509 426.795C64.1509 426.651 70.0834 426.527 77.3904 426.527C84.6974 426.527 90.6299 426.651 90.6299 426.795Z" fill="#263238"/>
<path d="M80.3566 425.162C80.2223 425.09 80.3566 424.625 80.677 424.129C80.9974 423.633 81.4315 423.426 81.5348 423.529C81.6382 423.633 81.4212 424.025 81.1111 424.449C80.801 424.873 80.491 425.235 80.3566 425.162Z" fill="#263238"/>
<path d="M81.3695 425.741C81.2248 425.741 81.2972 425.162 81.6072 424.615C81.9173 424.067 82.3307 423.736 82.4444 423.819C82.5581 423.901 82.372 424.366 82.0826 424.852C81.7933 425.338 81.5039 425.793 81.3695 425.741Z" fill="#263238"/>
<path d="M68.9258 426.754C68.8638 426.754 68.6261 426.568 68.2851 426.175C67.8687 425.67 67.4049 425.207 66.9001 424.79C66.4037 424.394 65.8123 424.134 65.1845 424.036C64.6987 423.974 64.3887 424.036 64.3577 423.974C64.3266 423.912 64.6264 423.695 65.1948 423.653C65.945 423.637 66.6768 423.886 67.2619 424.356C67.81 424.803 68.2723 425.346 68.6261 425.958C68.8638 426.413 68.9879 426.713 68.9258 426.754Z" fill="#263238"/>
<path d="M80.4083 423.498C80.4807 423.622 80.2119 423.932 79.7572 424.098C79.3024 424.263 78.8994 424.201 78.8787 424.098C78.858 423.994 79.1784 423.777 79.5712 423.633C79.9639 423.488 80.3256 423.374 80.4083 423.498Z" fill="#263238"/>
<path d="M80.1602 422.641C80.1602 422.796 79.7468 422.92 79.2094 422.93C78.672 422.94 78.2482 422.816 78.2585 422.672C78.2689 422.527 78.6926 422.392 79.2094 422.382C79.7262 422.372 80.1396 422.496 80.1602 422.641Z" fill="#263238"/>
<path d="M119.093 423.354V414.517L103.249 414.403L103.115 427.632L104.097 427.705C108.469 427.984 126.349 428.532 129.273 427.622C132.539 426.609 119.093 423.354 119.093 423.354Z" fill="#4CAF4F"/>
<path d="M129.645 426.816C129.645 426.961 123.723 427.085 116.406 427.085C109.089 427.085 103.177 426.961 103.177 426.816C103.177 426.671 109.099 426.547 116.406 426.547C123.713 426.547 129.645 426.671 129.645 426.816Z" fill="#263238"/>
<path d="M119.372 425.162C119.248 425.09 119.372 424.625 119.693 424.129C120.013 423.633 120.447 423.426 120.55 423.529C120.654 423.633 120.437 424.025 120.127 424.449C119.817 424.873 119.507 425.235 119.372 425.162Z" fill="#263238"/>
<path d="M120.385 425.741C120.251 425.741 120.313 425.162 120.633 424.615C120.954 424.067 121.357 423.736 121.47 423.819C121.584 423.901 121.388 424.366 121.098 424.852C120.809 425.338 120.53 425.793 120.385 425.741Z" fill="#263238"/>
<path d="M107.941 426.754C107.879 426.754 107.652 426.568 107.301 426.175C106.884 425.67 106.421 425.207 105.916 424.79C105.419 424.394 104.828 424.134 104.2 424.036C103.725 423.974 103.404 424.036 103.373 423.974C103.342 423.912 103.642 423.695 104.21 423.653C104.961 423.637 105.692 423.886 106.277 424.356C106.828 424.8 107.291 425.343 107.642 425.958C107.879 426.413 108.003 426.713 107.941 426.754Z" fill="#263238"/>
<path d="M119.424 423.498C119.496 423.622 119.228 423.932 118.773 424.098C118.318 424.263 117.915 424.201 117.894 424.098C117.874 423.994 118.194 423.777 118.587 423.633C118.98 423.488 119.341 423.374 119.424 423.498Z" fill="#263238"/>
<path d="M119.197 422.641C119.197 422.796 118.783 422.92 118.246 422.93C117.708 422.94 117.295 422.816 117.305 422.672C117.316 422.527 117.729 422.392 118.246 422.382C118.762 422.372 119.197 422.496 119.197 422.641Z" fill="#263238"/>
<path d="M177.467 160.941C177.053 160.518 176.03 160.724 176.03 160.724C176.133 160.129 176.133 159.521 176.03 158.926C175.844 158.347 174.542 158.461 174.542 158.461C174.482 157.973 174.482 157.481 174.542 156.993C174.552 156.885 174.529 156.777 174.475 156.682C174.422 156.588 174.34 156.512 174.242 156.466C173.626 156.215 172.964 156.095 172.299 156.115C171.503 155.546 174.728 151.03 175.927 149.583C177.126 148.136 176.909 147.009 175.844 147.009C175.11 147.009 171.348 151.35 170.191 152.807C169.033 154.265 165.964 158.316 165.86 155.081C165.757 151.846 164.455 149.407 163.638 148.994C162.822 148.58 161.954 149.552 162.398 150.451C162.788 151.473 163.032 152.544 163.121 153.634C163.234 154.502 163.195 155.384 163.008 156.239C162.665 157.83 162.199 159.392 161.612 160.91H161.53C161.53 160.91 138.978 182.542 137.345 184.082C135.888 185.467 106.577 182.439 100.696 181.819C98.6981 181.526 96.6802 181.388 94.6606 181.405C92.1078 181.519 91.6531 181.881 89.1106 181.912C82.6898 181.983 76.2838 182.546 69.949 183.596C67.0806 184.084 64.4012 185.35 62.2032 187.256C60.0052 189.163 58.373 191.636 57.4847 194.407C51.5626 212.907 38.1474 256.698 35.7806 281.295C33.9922 284.539 32.3776 287.875 30.9437 291.29C29.2798 295.816 29.6828 295.972 30.2409 296.075C31.7499 296.354 33.4655 288.23 34.1063 290.194C34.7471 292.158 30.8507 299.878 32.432 300.106C34.4991 300.395 36.1424 291.837 36.3387 291.155C36.5351 290.473 37.5583 290.69 37.3723 291.331C37.0725 292.24 34.1683 301.883 36.1941 302.193C37.3103 302.359 37.4343 300.323 37.4343 300.323C37.4343 300.323 39.5013 291.093 40.4418 291.279C41.3824 291.465 40.3798 296.912 39.9044 298.731C39.429 300.55 40.0904 301.47 41.062 301.025C41.7234 300.715 43.3047 295.186 43.7388 293.388C44.1729 291.589 45.2581 286.608 46.7153 289.491C48.1726 292.375 50.3844 294.049 51.2939 294.09C51.4988 294.067 51.692 293.982 51.8485 293.848C52.0051 293.714 52.1179 293.536 52.1723 293.337C52.2268 293.138 52.2205 292.927 52.1542 292.732C52.0879 292.536 51.9646 292.365 51.8003 292.24C51.018 291.477 50.3466 290.607 49.8056 289.657C49.3235 288.917 48.9737 288.098 48.7721 287.238C48.3556 285.524 48.1132 283.772 48.0486 282.009L47.8832 280.975C50.1983 269.513 56.8646 235.872 66.4867 214.385L70.4348 222.508L72.1504 228.524L61.6291 254.496L106.505 253.907L99.8076 228.131L107.941 201.259C116.737 201.456 139.319 201.786 143.081 200.081C147.815 198.014 172.299 167.091 172.299 167.091C173.895 165.851 175.424 164.526 176.878 163.122C176.878 163.122 178.366 161.871 177.467 160.941Z" fill="#FFBE9D"/>
<path d="M59.6551 235.304C60.9573 230.859 67.6443 208.887 67.6443 208.887C67.6443 208.887 70.9309 226.798 70.0627 228.958C69.2641 230.807 68.3207 232.59 67.2412 234.291C59.6551 245.835 60.6473 251.613 60.6473 251.613L106.484 250.217C106.588 243.809 102.794 228.906 102.009 226.529C101.224 224.152 103.838 216.369 103.838 216.369C103.838 216.369 109.006 211.109 108.82 208.401C108.722 205.968 108.421 203.549 107.921 201.166L135.826 202.2L134.948 183.286L94.8674 179.276C93.4721 183.214 80.8527 181.281 80.8527 181.281C67.2308 181.736 66.3834 184.237 60.7196 188.64C55.0559 193.043 45.6818 230.828 45.6818 230.828L59.6551 235.304Z" fill="#4CAF4F"/>
<path d="M86.7542 230.828C85.9598 230.97 85.1508 231.012 84.3461 230.952C82.8474 230.952 80.7907 230.849 78.5273 230.622C76.2639 230.394 74.2175 230.074 72.7602 229.784C71.9567 229.681 71.1688 229.48 70.4141 229.185C71.2222 229.185 72.0284 229.261 72.8222 229.412C74.2898 229.598 76.3259 229.857 78.579 230.084C80.8321 230.312 82.8784 230.467 84.3564 230.57C85.162 230.58 85.9649 230.667 86.7542 230.828Z" fill="#263238"/>
<path d="M89.8961 226.932C89.1015 227.321 88.2612 227.609 87.3949 227.79C83.2715 228.873 79.0174 229.378 74.7549 229.288C73.8729 229.317 72.9908 229.234 72.1298 229.04C73.0003 228.93 73.8777 228.886 74.7549 228.906C76.3775 228.854 78.61 228.741 81.0698 228.451C83.5296 228.162 85.7206 227.748 87.2709 227.418C88.132 227.188 89.0097 227.025 89.8961 226.932Z" fill="#263238"/>
<path d="M105.316 209.548C105.295 210.336 105.188 211.119 104.996 211.884C104.727 213.32 104.314 215.284 103.787 217.434C103.26 219.584 102.753 221.568 102.298 222.912C102.116 223.681 101.845 224.426 101.492 225.134C101.55 224.348 101.695 223.572 101.926 222.819C102.319 221.206 102.763 219.346 103.26 217.31C103.756 215.274 104.231 213.413 104.624 211.801C104.764 211.025 104.996 210.269 105.316 209.548Z" fill="#263238"/>
<path d="M60.1408 232.668C57.7498 232.299 55.3901 231.749 53.0819 231.025C50.7232 230.473 48.4087 229.748 46.1572 228.854C48.5471 229.23 50.9063 229.779 53.2162 230.498C55.5754 231.047 57.8901 231.773 60.1408 232.668Z" fill="#263238"/>
<path d="M108.417 200.939C108.027 201.006 107.629 201.006 107.239 200.939C106.159 200.828 105.099 200.574 104.086 200.184C102.396 199.549 100.857 198.567 99.5679 197.301C98.2792 196.036 97.2695 194.515 96.6037 192.836C95.8677 190.989 95.5535 189.001 95.6838 187.017C95.7299 185.381 96.2193 183.788 97.0998 182.408C97.7191 181.478 98.6441 180.794 99.7146 180.475C100.001 180.396 100.296 180.358 100.593 180.361C100.8 180.361 100.903 180.361 100.903 180.361C100.903 180.361 100.469 180.361 99.7766 180.64C98.7945 181.003 97.9616 181.683 97.4098 182.573C96.0042 184.785 95.6115 188.826 97.1101 192.598C97.8076 194.377 98.8995 195.974 100.304 197.27C101.454 198.33 102.779 199.183 104.221 199.792C105.573 200.326 106.98 200.711 108.417 200.939Z" fill="#263238"/>
<path d="M132.508 201.828C132.25 198.658 132.167 195.477 132.26 192.298C132.179 189.123 132.276 185.945 132.55 182.78C132.808 185.946 132.891 189.123 132.798 192.298C132.885 195.478 132.788 198.659 132.508 201.828Z" fill="#263238"/>
<path d="M94.5986 180.434C94.7123 178.129 94.95 175.524 94.95 175.524C94.95 175.524 100.655 174.894 100.996 169.003C101.337 163.112 100.996 149.521 100.996 149.521L90.6609 144.229L79.1887 153.252L80.9561 182.707L91.4773 183.379C92.2816 183.401 93.0618 183.104 93.6469 182.552C94.232 181.999 94.5743 181.238 94.5986 180.434Z" fill="#FFBE9D"/>
<path d="M95.6218 164.342C95.6218 164.342 95.6218 164.455 95.5288 164.59C95.4519 164.687 95.3525 164.764 95.239 164.815C95.1256 164.865 95.0016 164.887 94.8777 164.879C94.2162 164.879 93.5755 164.114 93.3481 163.225C93.24 162.795 93.24 162.344 93.3481 161.913C93.3693 161.725 93.4371 161.545 93.5454 161.39C93.6537 161.235 93.799 161.109 93.9682 161.024C94.1072 160.967 94.2633 160.967 94.4023 161.024C94.5053 161.075 94.5888 161.159 94.64 161.262C94.7123 161.437 94.64 161.551 94.64 161.541C94.64 161.53 94.64 161.437 94.5366 161.334C94.4826 161.26 94.4032 161.209 94.3135 161.189C94.2239 161.17 94.1304 161.185 94.0509 161.231C93.9241 161.307 93.8188 161.415 93.7447 161.543C93.6706 161.671 93.6301 161.816 93.6271 161.964C93.5401 162.349 93.5401 162.748 93.6271 163.132C93.8338 163.939 94.3919 164.59 94.888 164.652C94.9851 164.665 95.0838 164.658 95.1781 164.631C95.2723 164.604 95.36 164.559 95.4358 164.497C95.5598 164.414 95.6012 164.331 95.6218 164.342Z" fill="#EB996E"/>
<path d="M104.541 146.338C103.745 143.63 100.862 142.286 98.2367 141.542C94.2369 140.405 89.9168 139.909 86.01 141.346C82.1033 142.782 77.4111 145.304 77.4111 149.614C75.1063 149.428 73.7834 151.443 72.8739 153.944C72.2924 155.468 71.944 157.071 71.8404 158.699C71.551 164.342 69.9697 172.134 66.311 176.268C64.244 178.573 61.3811 180.165 60.2029 183.038C59.1694 185.529 59.7068 188.485 58.7456 191.007C57.8878 193.229 55.9964 194.81 54.6115 196.743C53.2006 198.935 52.3702 201.45 52.1984 204.052C52.0267 206.654 52.5192 209.256 53.6297 211.615C54.7481 213.914 56.3228 215.96 58.2578 217.631C60.1928 219.301 62.4476 220.56 64.8848 221.33C69.7124 222.799 74.8605 222.849 79.7159 221.475C83.3598 220.604 86.7591 218.918 89.6584 216.545C92.625 214.122 94.6625 210.749 95.4255 206.995C96.1593 202.778 94.9811 198.489 94.1026 194.293C91.3534 181.033 92.1388 180.341 95.6115 168.031C95.6942 167.814 95.7355 167.587 95.7975 167.37C95.8596 167.153 95.8906 167.049 95.9319 166.884C96.0305 166.397 96.0824 165.903 96.0869 165.406C95.5797 165.595 95.0292 165.635 94.5001 165.521C93.9709 165.408 93.4852 165.145 93.1 164.765C92.7139 164.36 92.4447 163.858 92.321 163.312C92.1973 162.766 92.2236 162.197 92.3972 161.665C92.6411 161.083 93.0044 160.558 93.4638 160.126C93.9231 159.693 94.4682 159.362 95.0637 159.153C96.2109 158.678 97.4408 158.43 98.5674 157.903C100.955 156.766 102.608 154.409 103.735 151.939C104.661 150.227 104.947 148.241 104.541 146.338Z" fill="#263238"/>
<path d="M96.0352 164.621C96.2536 164.943 96.4339 165.29 96.5727 165.654C96.8827 166.305 97.2961 167.225 97.7509 168.29L97.8336 168.486H97.6165L96.583 168.579C95.8698 168.579 95.2704 168.713 94.5676 168.703C94.5064 168.689 94.4497 168.66 94.4027 168.619C94.3557 168.577 94.32 168.524 94.2989 168.465C94.2681 168.371 94.2681 168.27 94.2989 168.176C94.3228 168.037 94.3539 167.899 94.3919 167.763L94.5779 167.029C94.6714 166.539 94.817 166.061 95.012 165.602C94.9928 166.101 94.92 166.597 94.795 167.08L94.6503 167.814C94.5986 168.062 94.5056 168.445 94.6503 168.414C95.1671 168.414 95.9009 168.3 96.583 168.259L97.6165 168.166L97.4822 168.393C97.0377 167.359 96.6657 166.388 96.4486 165.716C96.2582 165.373 96.119 165.004 96.0352 164.621Z" fill="#4CAF4F"/>
<path d="M60.6473 251.613L106.484 250.217L126.431 328.083L122.762 417.401H98.5261L101.492 329.985L83.7673 275.776L86.4958 420.863L62.0012 421.225L59.4277 284.851C59.3141 281.058 58.0738 272.51 58.5389 268.748L60.6473 251.613Z" fill="#263238"/>
<path d="M89.8651 276.882C89.1148 276.93 88.3616 276.884 87.6223 276.748C86.2374 276.583 84.346 276.293 82.2687 275.88C80.1913 275.466 78.3309 274.991 76.9873 274.609C76.2691 274.451 75.5743 274.201 74.9203 273.864C74.9203 273.709 78.2896 274.516 82.4237 275.353C86.5578 276.19 89.8857 276.727 89.8651 276.882Z" fill="#455A64"/>
<path d="M122.514 412.502C122.514 412.646 117.026 412.77 110.257 412.77C103.487 412.77 97.9886 412.646 97.9886 412.502C97.9886 412.357 103.477 412.233 110.257 412.233C117.036 412.233 122.514 412.347 122.514 412.502Z" fill="#455A64"/>
<path d="M86.2787 417.09C86.2787 417.245 80.9458 417.359 74.3725 417.359C67.7993 417.359 62.4766 417.245 62.4766 417.09C62.4766 416.935 67.8096 416.822 74.3725 416.822C80.9354 416.822 86.2787 416.946 86.2787 417.09Z" fill="#455A64"/>
<path d="M83.1161 416.718C82.9714 416.718 82.3307 385.02 81.6795 345.922C81.0284 306.824 80.646 275.105 80.7804 275.105C80.9147 275.105 81.5762 306.793 82.217 345.912C82.8578 385.03 83.2712 416.718 83.1161 416.718Z" fill="#455A64"/>
<path d="M119.259 412.502C119.247 412.361 119.247 412.219 119.259 412.078V410.838C119.259 409.721 119.341 408.119 119.403 406.083C119.548 401.949 119.755 395.945 120.013 388.586C120.571 373.786 121.357 353.384 122.214 330.863C122.214 330.646 122.214 330.44 122.214 330.254V330.326C116.788 308.622 111.879 288.923 108.314 274.671L104.179 257.814C103.704 255.84 103.342 254.3 103.084 253.225C102.96 252.718 102.877 252.326 102.805 252.026C102.765 251.891 102.74 251.753 102.732 251.613C102.786 251.743 102.828 251.878 102.857 252.016C102.939 252.305 103.043 252.698 103.187 253.194C103.466 254.227 103.869 255.798 104.386 257.762C105.42 261.751 106.877 267.498 108.696 274.578C112.293 288.82 117.254 308.467 122.752 330.202V330.274C122.752 330.46 122.752 330.677 122.752 330.884C121.832 353.405 120.995 373.796 120.385 388.596C120.065 395.965 119.796 401.929 119.61 406.083C119.507 408.15 119.424 409.721 119.372 410.838C119.372 411.365 119.31 411.778 119.3 412.078C119.301 412.22 119.288 412.362 119.259 412.502Z" fill="#455A64"/>
<path d="M111.352 328.435C109.611 329.007 107.818 329.405 105.998 329.623C103.766 330.006 101.864 330.274 101.006 330.316V330.109C101.286 330.192 101.43 330.243 101.43 330.285C101.43 330.326 101.255 330.285 100.965 330.285H100.345L100.965 330.099C101.771 329.861 103.673 329.468 105.905 329.065C107.696 328.677 109.52 328.465 111.352 328.435Z" fill="#455A64"/>
<path d="M110.928 331.401C109.316 331.475 107.701 331.402 106.102 331.184C104.487 331.151 102.879 330.974 101.296 330.657C104.526 330.393 107.777 330.644 110.928 331.401Z" fill="#455A64"/>
<path opacity="0.2" d="M60.4509 253.256C60.9938 253.953 61.6775 254.528 62.4575 254.943C63.2376 255.358 64.0963 255.603 64.9778 255.664C66.8238 255.883 68.6912 255.848 70.5278 255.561C82.3617 254.248 94.8984 253.039 106.484 250.217C91.4877 251.054 75.6438 250.775 60.6473 251.613L60.4923 252.894" fill="black"/>
<g opacity="0.2">
<path d="M75.9022 274.391L84.3564 307.196L83.7673 275.776L75.9022 274.391Z" fill="black"/>
</g>
</svg>
