<svg width="343" height="316" viewBox="0 0 343 316" fill="none" xmlns="http://www.w3.org/2000/svg">
<path d="M171.218 315.246C265.778 315.246 342.435 310.77 342.435 305.249C342.435 299.729 265.778 295.253 171.218 295.253C76.6567 295.253 0 299.729 0 305.249C0 310.77 76.6567 315.246 171.218 315.246Z" fill="#F5F5F5"/>
<path d="M258.862 82.0014L250.102 78.4692C250.102 78.4692 238.542 99.548 235.231 100.616C230.727 102.065 221.402 106.091 215.874 106.798C215.124 107.681 213.896 110.427 214.011 111.425C221.438 113.907 237.757 110.613 241.254 108.017C249.21 102.127 258.862 82.0014 258.862 82.0014Z" fill="#E58A7B"/>
<path d="M261.555 77.2064C263.189 83.2378 254.341 95.3711 254.341 95.3711L242.746 88.8717C242.746 88.8717 244.918 83.8824 247.567 78.8048C251.815 70.6011 259.692 70.3273 261.555 77.2064Z" fill="#4CAF4F"/>
<path opacity="0.2" d="M261.555 77.2064C263.189 83.2378 254.341 95.3711 254.341 95.3711L242.746 88.8717C242.746 88.8717 244.918 83.8824 247.567 78.8048C251.815 70.6011 259.692 70.3273 261.555 77.2064Z" fill="black"/>
<path opacity="0.2" d="M247.347 91.468L251.912 94.0288L252.716 80.0146C250.058 82.0545 248.186 88.2006 247.347 91.468Z" fill="black"/>
<path d="M253.926 72.6675C253.926 72.6675 244.901 92.7484 250.164 130.137H285.725C286.29 124.68 284.418 98.0468 291.191 72.3319C287.29 71.5695 283.343 71.0651 279.375 70.8219C274.343 70.5302 269.298 70.5302 264.266 70.8219C260.778 71.1761 257.321 71.793 253.926 72.6675Z" fill="#4CAF4F"/>
<path opacity="0.2" d="M253.926 72.6675C253.926 72.6675 244.901 92.7484 250.164 130.137H285.725C286.29 124.68 284.418 98.0468 291.191 72.3319C287.29 71.5695 283.343 71.0651 279.375 70.8219C274.343 70.5302 269.298 70.5302 264.266 70.8219C260.778 71.1761 257.321 71.793 253.926 72.6675Z" fill="black"/>
<path d="M245.678 306.044C245.625 306.998 259.109 307.766 275.79 307.766C292.471 307.766 306.053 306.998 306.106 306.044C306.159 305.09 292.683 304.331 275.993 304.331C259.303 304.331 245.739 305.099 245.678 306.044Z" fill="#E8ECF1"/>
<path d="M269.415 280.985L263.108 283.427L268.541 297.462L274.848 295.02L269.415 280.985Z" fill="#E58A7B"/>
<path d="M297.54 299.253H290.891L288.453 283.861H295.103L297.54 299.253Z" fill="#E58A7B"/>
<path d="M290.431 298.485H297.902C298.032 298.485 298.157 298.532 298.256 298.616C298.354 298.7 298.42 298.816 298.441 298.944L299.403 304.852C299.424 305 299.412 305.151 299.369 305.294C299.325 305.437 299.252 305.57 299.153 305.682C299.054 305.794 298.932 305.884 298.796 305.945C298.659 306.006 298.511 306.037 298.361 306.035C295.756 305.991 294.502 305.832 291.217 305.832C289.195 305.832 285.036 306.044 282.228 306.044C279.42 306.044 279.234 303.289 280.391 303.033C285.583 301.911 287.597 300.384 289.328 298.9C289.633 298.632 290.025 298.484 290.431 298.485Z" fill="#263238"/>
<path d="M268.355 296.207L275.419 294.14C275.545 294.105 275.68 294.113 275.8 294.165C275.921 294.216 276.02 294.307 276.082 294.423L278.731 299.721C278.792 299.856 278.824 300.002 278.823 300.15C278.822 300.298 278.789 300.443 278.726 300.577C278.663 300.711 278.571 300.829 278.458 300.924C278.344 301.019 278.211 301.087 278.069 301.125C275.499 301.832 273.777 302.265 270.562 303.201C268.346 303.845 266.085 304.896 263.895 305.594C262.376 306.079 258.809 306.097 256.963 306.097C254.235 306.097 253.625 303.218 254.8 303.086C257.758 302.759 258.155 302.909 259.789 302.088C262.462 300.919 264.885 299.246 266.924 297.16C267.309 296.722 267.802 296.393 268.355 296.207Z" fill="#263238"/>
<path d="M216.987 106.763L209.675 103.698L206.664 111.805C209.661 112.261 212.709 112.261 215.706 111.805L216.987 106.763Z" fill="#E58A7B"/>
<path d="M204.235 103.486L204.041 108.873L206.664 111.787L209.675 103.681L204.235 103.486Z" fill="#E58A7B"/>
<path d="M270.28 282.177L263.953 284.62L266.755 291.877L273.082 289.435L270.28 282.177Z" fill="#CF6F64"/>
<path d="M295.103 283.861H288.453L289.716 291.8H296.366L295.103 283.861Z" fill="#CF6F64"/>
<path opacity="0.2" d="M249.033 120.026C249.166 121.625 249.316 123.258 249.51 124.936L275.949 116.353C280.078 115.129 283.666 112.534 286.122 108.997C286.228 106.639 286.361 104.158 286.564 101.57C286.652 100.316 286.758 99.027 286.873 97.72C286.987 96.4131 287.146 94.9649 287.314 93.5696L249.033 120.026Z" fill="black"/>
<path d="M257.67 91.0617L256.787 90.9558C257.308 86.5405 260.601 83.0612 264.072 83.1495V84.0325C261.034 83.9707 258.138 87.1056 257.67 91.0617Z" fill="white"/>
<path d="M262.376 99.2124H262.226V98.3294C265.264 98.4442 268.116 95.274 268.584 91.3267L269.467 91.4326C268.999 95.7508 265.812 99.2124 262.376 99.2124Z" fill="white"/>
<path d="M278.881 53.8052C277.636 58.6709 276.17 67.581 279.376 70.8219C279.376 70.8219 277.133 75.7582 268.099 75.7582C259.842 75.7582 264.266 70.8219 264.266 70.8219C269.759 69.5326 269.856 65.5235 269.132 61.7263L278.881 53.8052Z" fill="#E58A7B"/>
<path d="M274.907 57.0372L269.141 61.7263C269.319 62.5989 269.423 63.4852 269.45 64.3755C271.136 66.0533 274.519 61.8058 274.863 59.6334C275.038 58.7782 275.053 57.8979 274.907 57.0372Z" fill="#CF6F64"/>
<path d="M259.224 53.7434C259.625 54.4388 260.166 55.044 260.811 55.5211C261.457 55.9982 262.194 56.337 262.977 56.5162C265.096 56.9842 266.156 55.0326 265.573 53.0722C265.052 51.3061 263.313 48.9307 261.158 49.3369C260.696 49.4319 260.264 49.6362 259.898 49.9326C259.532 50.229 259.242 50.6088 259.052 51.0403C258.863 51.4718 258.78 51.9424 258.809 52.4127C258.839 52.883 258.981 53.3393 259.224 53.7434Z" fill="#CF6F64"/>
<path d="M262.73 38.1749C259.427 39.685 258.261 52.8073 262.412 54.7501C266.562 56.6928 268.982 35.3049 262.73 38.1749Z" fill="#263238"/>
<path d="M279.888 46.4846C279.093 53.0722 279.005 56.9489 275.472 60.3222C274.378 61.4416 272.995 62.2368 271.477 62.6199C269.959 63.003 268.365 62.9592 266.87 62.4933C265.375 62.0273 264.039 61.1574 263.007 59.9795C261.976 58.8017 261.29 57.3617 261.025 55.8186C259.957 49.902 261.432 40.1265 268.037 37.5038C269.425 36.8916 270.951 36.6618 272.458 36.8382C273.964 37.0146 275.396 37.5907 276.605 38.5068C277.814 39.423 278.756 40.6458 279.333 42.0486C279.91 43.4513 280.102 44.9829 279.888 46.4846Z" fill="#E58A7B"/>
<path d="M269.035 41.5836C273.927 40.3384 277.521 39.4907 276.232 43.5616C274.527 49.0013 272.479 54.2644 275.225 54.5028C276.903 54.6529 284.321 51.5092 283.376 48.3213C282.555 45.5485 286.025 44.7891 286.643 43.385C288.93 38.2985 282.387 38.9697 283.552 35.8789C284.718 32.7882 278.254 27.8077 274.722 30.2891C268.973 34.2983 259.109 34.2364 264.293 27.6399C268.01 22.9332 261.379 23.8957 261.379 23.8957C261.379 23.8957 265.388 26.2712 258.641 29.9447C251.506 33.8656 258.049 44.4005 269.035 41.5836Z" fill="#263238"/>
<path d="M282.484 53.7434C281.518 55.1408 280.067 56.1292 278.413 56.5162C276.232 56.9842 275.393 55.0326 276.214 53.0722C276.947 51.3061 278.96 48.9307 281.044 49.3369C283.129 49.7431 283.605 52.0125 282.484 53.7434Z" fill="#E58A7B"/>
<path d="M250.164 130.137C250.164 130.137 244.194 183.563 243.726 203.838C243.249 224.926 263.957 290.723 263.957 290.723L274.554 286.308C274.554 286.308 262.191 226.188 263.957 205.481C265.829 182.901 273.565 130.173 273.565 130.173L250.164 130.137Z" fill="#4CAF4F"/>
<path opacity="0.2" d="M264.999 144.805C260.24 154.678 263.445 174.202 266.024 185.77C267.004 177.602 268.169 168.736 269.273 160.532C269.167 147.922 268.187 138.182 264.999 144.805Z" fill="black"/>
<path d="M274.086 282.811C274.139 282.811 275.34 286.184 275.34 286.184L263.118 291.323L261.193 287.738L274.086 282.811Z" fill="#4CAF4F"/>
<path d="M262.783 130.137C262.783 130.137 267.348 180.949 270.368 199.979C273.689 220.828 286.705 290.264 286.705 290.264H298.882C298.882 290.264 291.588 222.515 290.211 201.869C288.71 179.474 285.725 130.137 285.725 130.137H262.783Z" fill="#4CAF4F"/>
<path d="M299.068 287.093C299.121 287.093 299.474 290.493 299.474 290.493H286.087L285.133 286.59L299.068 287.093Z" fill="#4CAF4F"/>
<path opacity="0.2" d="M294.405 283.067C294.378 283.067 294.351 283.057 294.33 283.04C294.309 283.022 294.295 282.997 294.29 282.97C294.22 282.351 287.641 221.155 286.405 202.611C285.062 182.494 282.36 137.873 282.334 137.423C282.333 137.408 282.334 137.393 282.339 137.379C282.344 137.366 282.352 137.353 282.361 137.342C282.371 137.331 282.384 137.323 282.397 137.317C282.41 137.311 282.425 137.308 282.44 137.308C282.469 137.308 282.497 137.319 282.518 137.338C282.539 137.358 282.552 137.385 282.555 137.414C282.555 137.864 285.283 182.45 286.625 202.602C287.862 221.146 294.441 282.298 294.502 282.961C294.505 282.975 294.504 282.99 294.501 283.005C294.497 283.019 294.49 283.032 294.481 283.044C294.472 283.056 294.461 283.065 294.448 283.072C294.434 283.079 294.42 283.083 294.405 283.084V283.067Z" fill="black"/>
<path d="M269.785 48.3213C269.785 48.86 269.45 49.2927 269.097 49.2927C268.743 49.2927 268.487 48.86 268.523 48.3213C268.558 47.7827 268.858 47.35 269.211 47.35C269.565 47.35 269.821 47.7915 269.785 48.3213Z" fill="#263238"/>
<path d="M263.728 48.3213C263.728 48.86 263.383 49.2927 263.039 49.2927C262.694 49.2927 262.429 48.86 262.456 48.3213C262.482 47.7827 262.8 47.35 263.154 47.35C263.507 47.35 263.763 47.7915 263.728 48.3213Z" fill="#263238"/>
<path d="M265.635 48.5951C264.898 50.24 263.948 51.7809 262.809 53.1782C263.692 54.0613 265.344 53.6551 265.344 53.6551L265.635 48.5951Z" fill="#DF5753"/>
<path d="M265.794 55.9069C265.773 55.9069 265.753 55.9028 265.734 55.8947C265.716 55.8866 265.699 55.8747 265.685 55.8598C265.67 55.8449 265.66 55.8273 265.653 55.8081C265.646 55.7888 265.643 55.7684 265.644 55.7479C265.646 55.705 265.665 55.6645 265.696 55.635C265.727 55.6054 265.769 55.5889 265.812 55.589C266.487 55.5937 267.155 55.447 267.766 55.1597C268.377 54.8724 268.916 54.4518 269.344 53.9288C269.374 53.9021 269.414 53.8874 269.454 53.8874C269.495 53.8874 269.534 53.9021 269.565 53.9288C269.593 53.9584 269.609 53.998 269.609 54.0392C269.609 54.0804 269.593 54.1199 269.565 54.1496C269.107 54.7054 268.531 55.1517 267.879 55.4558C267.226 55.7599 266.514 55.914 265.794 55.9069Z" fill="#263238"/>
<path d="M270.863 46.6965C270.82 46.7182 270.773 46.7295 270.726 46.7295C270.678 46.7295 270.631 46.7182 270.589 46.6965C270.259 46.483 269.883 46.3501 269.492 46.3087C269.1 46.2673 268.705 46.3185 268.337 46.4581C268.301 46.476 268.262 46.4866 268.222 46.4892C268.182 46.4918 268.142 46.4863 268.104 46.4731C268.066 46.46 268.032 46.4393 268.002 46.4125C267.972 46.3857 267.948 46.3531 267.931 46.3168C267.898 46.2382 267.897 46.1499 267.929 46.0708C267.96 45.9916 268.021 45.9278 268.099 45.8929C268.56 45.7044 269.061 45.63 269.557 45.6761C270.054 45.7222 270.532 45.8875 270.951 46.1579C270.985 46.1809 271.014 46.2104 271.036 46.2447C271.059 46.279 271.074 46.3173 271.081 46.3576C271.089 46.3978 271.088 46.4392 271.079 46.4792C271.071 46.5192 271.054 46.557 271.031 46.5906C270.986 46.6412 270.928 46.678 270.863 46.6965Z" fill="#263238"/>
<path d="M261.387 44.9304C261.34 44.919 261.297 44.8945 261.264 44.8597C261.234 44.8309 261.211 44.7966 261.195 44.7587C261.179 44.7208 261.171 44.6801 261.171 44.639C261.171 44.5978 261.179 44.5571 261.195 44.5192C261.211 44.4813 261.234 44.447 261.264 44.4182C261.602 44.0386 262.024 43.7423 262.496 43.5523C262.967 43.3624 263.477 43.284 263.984 43.3232C264.024 43.3295 264.063 43.344 264.098 43.3659C264.133 43.3878 264.163 43.4167 264.186 43.4506C264.209 43.4845 264.225 43.5229 264.233 43.5632C264.24 43.6036 264.24 43.6451 264.231 43.6852C264.212 43.767 264.164 43.8391 264.096 43.8878C264.027 43.9366 263.943 43.9588 263.86 43.9502C263.459 43.9249 263.057 43.9913 262.685 44.1443C262.313 44.2973 261.981 44.5329 261.714 44.8332C261.674 44.8779 261.622 44.9106 261.564 44.9278C261.507 44.9449 261.446 44.9458 261.387 44.9304Z" fill="#263238"/>
<path d="M294.608 81.0213L285.424 78.5752C285.424 78.5752 276.417 100.749 273.229 102.188C268.902 104.166 257.943 111.019 253.281 114.26C253.025 115.364 253.228 118.287 253.811 119.09C261.758 117.642 276.974 111.787 280.153 108.811C287.403 102.021 294.608 81.0213 294.608 81.0213Z" fill="#E58A7B"/>
<path d="M288.197 299.651C287.749 299.686 287.303 299.564 286.935 299.306C286.821 299.204 286.736 299.073 286.688 298.928C286.64 298.782 286.63 298.626 286.661 298.476C286.666 298.382 286.697 298.292 286.75 298.214C286.803 298.136 286.876 298.074 286.961 298.035C287.703 297.655 289.778 298.971 290.016 299.121C290.043 299.137 290.063 299.161 290.074 299.19C290.085 299.219 290.087 299.25 290.078 299.28C290.071 299.311 290.055 299.339 290.034 299.362C290.012 299.385 289.985 299.403 289.955 299.412C289.379 299.554 288.79 299.634 288.197 299.651ZM287.314 298.273C287.247 298.258 287.178 298.258 287.111 298.273C287.077 298.29 287.049 298.317 287.03 298.35C287.012 298.383 287.003 298.421 287.005 298.459C286.982 298.561 286.986 298.668 287.017 298.769C287.048 298.87 287.105 298.961 287.182 299.033C287.526 299.342 288.392 299.377 289.531 299.156C288.852 298.709 288.089 298.409 287.288 298.273H287.314Z" fill="#4CAF4F"/>
<path d="M289.91 299.412C289.888 299.42 289.863 299.42 289.84 299.412C289.178 299.041 287.932 297.584 288.118 296.843C288.146 296.725 288.212 296.62 288.307 296.545C288.401 296.47 288.518 296.428 288.639 296.427C288.757 296.412 288.878 296.422 288.992 296.457C289.107 296.492 289.212 296.551 289.301 296.631C290.034 297.258 290.078 299.183 290.078 299.28C290.083 299.309 290.077 299.338 290.063 299.364C290.048 299.39 290.026 299.41 289.999 299.421C289.969 299.427 289.938 299.424 289.91 299.412ZM288.727 296.719H288.665C288.462 296.719 288.436 296.834 288.427 296.878C288.321 297.311 289.107 298.414 289.76 298.935C289.757 298.189 289.526 297.462 289.098 296.851C288.996 296.762 288.863 296.715 288.727 296.719Z" fill="#4CAF4F"/>
<path d="M264.752 298.547C264.212 298.735 263.623 298.735 263.083 298.547C262.96 298.48 262.856 298.384 262.781 298.267C262.705 298.149 262.66 298.015 262.65 297.876C262.639 297.788 262.65 297.7 262.683 297.618C262.715 297.536 262.768 297.464 262.836 297.408C263.542 296.772 266.43 297.408 266.756 297.531C266.788 297.539 266.815 297.558 266.834 297.583C266.853 297.609 266.863 297.641 266.862 297.673C266.864 297.706 266.855 297.739 266.838 297.767C266.821 297.795 266.795 297.818 266.765 297.832C266.115 298.125 265.442 298.364 264.752 298.547ZM263.312 297.496C263.212 297.516 263.117 297.562 263.039 297.628C263.011 297.65 262.989 297.678 262.977 297.711C262.964 297.744 262.961 297.78 262.968 297.814C262.974 297.907 263.003 297.996 263.052 298.075C263.101 298.154 263.17 298.219 263.251 298.264C263.719 298.512 264.805 298.317 266.209 297.726C265.263 297.487 264.284 297.409 263.312 297.496Z" fill="#4CAF4F"/>
<path d="M266.739 297.832H266.668C265.785 297.673 264.019 296.657 263.966 295.898C263.966 295.721 264.045 295.474 264.469 295.332C264.612 295.281 264.764 295.26 264.916 295.269C265.068 295.278 265.216 295.318 265.352 295.385C266.306 295.853 266.809 297.549 266.836 297.628C266.842 297.655 266.841 297.683 266.834 297.709C266.826 297.736 266.811 297.759 266.792 297.779C266.779 297.8 266.76 297.818 266.739 297.832ZM264.646 295.597H264.558C264.284 295.695 264.284 295.809 264.284 295.845C264.284 296.304 265.564 297.143 266.456 297.425C266.251 296.716 265.816 296.095 265.22 295.659C265.043 295.569 264.838 295.547 264.646 295.597Z" fill="#4CAF4F"/>
<path d="M254.031 113.739L244.821 117.978L243.753 120.627L247.152 122.914C247.152 122.914 253.51 122.225 255.321 118.137L254.031 113.739Z" fill="#E58A7B"/>
<path d="M254.42 119.24C254.214 117.471 253.63 115.766 252.707 114.242L254.164 113.147C255.26 114.903 255.959 116.877 256.213 118.931L254.42 119.24Z" fill="#263238"/>
<path d="M255.992 114.993C256.187 115.299 256.282 115.658 256.266 116.02C256.249 116.383 256.122 116.732 255.9 117.019C255.678 117.306 255.374 117.519 255.027 117.627C254.681 117.735 254.309 117.733 253.964 117.623C253.618 117.512 253.315 117.298 253.095 117.009C252.876 116.72 252.75 116.37 252.737 116.008C252.723 115.645 252.821 115.287 253.018 114.982C253.215 114.677 253.501 114.441 253.837 114.304C254.215 114.112 254.653 114.076 255.056 114.205C255.46 114.334 255.796 114.617 255.992 114.993Z" fill="#263238"/>
<path d="M238.595 121.404L239.823 122.64L248.088 119.108L244.821 117.978L238.595 121.404Z" fill="#E58A7B"/>
<path opacity="0.2" d="M274.086 282.811C274.139 282.811 275.34 286.184 275.34 286.184L263.118 291.323L261.193 287.738L274.086 282.811Z" fill="black"/>
<path opacity="0.2" d="M299.068 287.093C299.121 287.093 299.474 290.493 299.474 290.493H286.087L285.133 286.59L299.068 287.093Z" fill="black"/>
<path d="M297.001 78.478C299.43 86.3108 289.937 97.0224 289.937 97.0224L276.823 91.671C278.378 87.1438 280.17 82.7016 282.192 78.3632C286.219 69.6827 294.546 70.5746 297.001 78.478Z" fill="#4CAF4F"/>
<path opacity="0.2" d="M297.001 78.478C299.43 86.3108 289.937 97.0224 289.937 97.0224L276.823 91.671C278.378 87.1438 280.17 82.7016 282.192 78.3632C286.219 69.6827 294.546 70.5746 297.001 78.478Z" fill="black"/>
<path d="M166.696 0H161.054V0.909557H166.696V0Z" fill="#4CAF4F"/>
<path d="M239.742 35.9995L239.059 51.1552L239.968 51.1962L240.651 36.0405L239.742 35.9995Z" fill="#4CAF4F"/>
<path d="M237.986 4.07977H133.784L124.088 221.067H228.29L237.986 4.07977Z" fill="#4CAF4F"/>
<path opacity="0.56" d="M234.878 7.06451H130.676L120.98 224.051H225.182L234.878 7.06451Z" fill="#FAFAFA"/>
<path opacity="0.07" d="M231.769 10.0405H127.568L117.863 227.027H222.065L231.769 10.0405Z" fill="#4CAF4F"/>
<path d="M219.91 104.679H130.967L130.226 121.28H219.168L219.91 104.679Z" fill="white"/>
<path d="M179.881 92.5629H131.506L131.179 99.9895H179.554L179.881 92.5629Z" fill="#4CAF4F"/>
<path d="M217.905 149.485H128.963L128.221 166.087H217.164L217.905 149.485Z" fill="white"/>
<path opacity="0.47" d="M201.595 188.508H141.785L140.893 208.404H200.703L201.595 188.508Z" fill="#4CAF4F"/>
<path d="M197.595 211.494H137.785C137.759 211.501 137.731 211.501 137.705 211.494C137.697 211.468 137.697 211.441 137.705 211.415L138.588 191.51C138.588 191.497 138.591 191.484 138.596 191.471C138.602 191.459 138.61 191.448 138.62 191.438C138.63 191.429 138.642 191.422 138.654 191.418C138.667 191.414 138.681 191.412 138.694 191.413H198.504C198.515 191.408 198.527 191.405 198.54 191.405C198.552 191.405 198.564 191.408 198.575 191.413C198.581 191.424 198.584 191.436 198.584 191.449C198.584 191.461 198.581 191.473 198.575 191.484L197.71 211.432C197.699 211.453 197.682 211.47 197.662 211.481C197.641 211.492 197.618 211.497 197.595 211.494ZM137.891 211.282H197.489L198.372 191.59H138.774L137.891 211.282Z" fill="white"/>
<path d="M169.434 137.37H129.502L129.175 144.805H169.098L169.434 137.37Z" fill="#4CAF4F"/>
<path d="M200.456 51.05C200.228 55.8816 198.51 60.5241 195.537 64.3401C193.337 67.2226 190.506 69.5626 187.26 71.1806C184.015 72.7987 180.442 73.6517 176.816 73.6741C173.886 73.6965 170.982 73.1187 168.284 71.9763C165.585 70.8339 163.149 69.1511 161.125 67.0315C159.102 64.912 157.534 62.4007 156.518 59.6521C155.501 56.9036 155.059 53.9761 155.217 51.05C155.527 44.9781 158.146 39.2541 162.536 35.0487C166.927 30.8433 172.759 28.4742 178.839 28.4259C181.771 28.3985 184.678 28.9728 187.38 30.1132C190.082 31.2537 192.521 32.936 194.547 35.0563C196.573 37.1767 198.143 39.6899 199.159 42.4408C200.175 45.1917 200.617 48.1218 200.456 51.05Z" fill="white"/>
<path d="M202.584 33.1591C202.526 34.4438 202.07 35.6786 201.277 36.6914C200.691 37.457 199.937 38.0785 199.074 38.5086C198.211 38.9386 197.261 39.1658 196.297 39.1728C195.362 39.1785 194.441 38.9553 193.613 38.5228C192.785 38.0902 192.075 37.4614 191.546 36.6914C190.845 35.6509 190.498 34.4122 190.557 33.1591C190.642 31.547 191.339 30.0282 192.506 28.9124C193.673 27.7965 195.221 27.1678 196.835 27.1543C197.614 27.1472 198.386 27.2996 199.104 27.6022C199.821 27.9048 200.47 28.3511 201.008 28.9137C201.547 29.4763 201.964 30.1432 202.235 30.8733C202.506 31.6035 202.625 32.3814 202.584 33.1591Z" fill="#4CAF4F"/>
<path d="M140.549 112.979C140.506 113.691 140.196 114.36 139.679 114.852C139.163 115.343 138.48 115.621 137.767 115.629C137.423 115.633 137.082 115.566 136.764 115.433C136.447 115.3 136.16 115.103 135.922 114.855C135.683 114.607 135.498 114.312 135.378 113.99C135.258 113.667 135.206 113.323 135.224 112.979C135.262 112.266 135.571 111.595 136.089 111.102C136.606 110.61 137.291 110.334 138.005 110.33C138.349 110.327 138.69 110.395 139.007 110.528C139.324 110.662 139.61 110.859 139.848 111.107C140.086 111.355 140.271 111.649 140.392 111.971C140.512 112.293 140.566 112.636 140.549 112.979Z" fill="#263238"/>
<path d="M152.452 112.979C152.412 113.692 152.102 114.362 151.585 114.854C151.069 115.346 150.384 115.623 149.671 115.629C149.327 115.632 148.987 115.564 148.671 115.43C148.354 115.297 148.069 115.1 147.831 114.852C147.594 114.604 147.41 114.309 147.29 113.987C147.171 113.665 147.118 113.322 147.136 112.979C147.175 112.268 147.483 111.598 147.998 111.105C148.513 110.613 149.197 110.336 149.909 110.33C150.253 110.326 150.595 110.393 150.912 110.526C151.23 110.659 151.516 110.856 151.755 111.104C151.993 111.352 152.178 111.647 152.298 111.969C152.418 112.292 152.471 112.636 152.452 112.979Z" fill="#263238"/>
<path d="M164.365 112.979C164.325 113.692 164.015 114.362 163.498 114.854C162.981 115.346 162.297 115.623 161.583 115.629C161.24 115.631 160.899 115.564 160.582 115.431C160.265 115.297 159.979 115.1 159.741 114.852C159.503 114.604 159.318 114.31 159.197 113.988C159.077 113.666 159.023 113.323 159.04 112.979C159.081 112.267 159.39 111.597 159.907 111.105C160.424 110.613 161.108 110.336 161.822 110.33C162.166 110.326 162.507 110.393 162.825 110.526C163.142 110.659 163.429 110.856 163.667 111.104C163.906 111.352 164.091 111.647 164.211 111.969C164.331 112.292 164.383 112.636 164.365 112.979Z" fill="#263238"/>
<path d="M138.544 157.786C138.502 158.498 138.191 159.167 137.675 159.658C137.159 160.15 136.475 160.428 135.763 160.435C135.419 160.438 135.078 160.371 134.761 160.237C134.444 160.104 134.158 159.907 133.92 159.659C133.682 159.411 133.497 159.117 133.376 158.795C133.256 158.473 133.202 158.13 133.219 157.786C133.26 157.074 133.57 156.404 134.086 155.912C134.603 155.42 135.288 155.143 136.001 155.137C136.345 155.134 136.686 155.202 137.002 155.335C137.319 155.469 137.605 155.665 137.844 155.913C138.082 156.161 138.267 156.455 138.387 156.778C138.508 157.1 138.561 157.443 138.544 157.786Z" fill="#263238"/>
<path d="M150.448 157.786C150.408 158.497 150.099 159.166 149.584 159.658C149.069 160.15 148.387 160.428 147.675 160.435C147.331 160.439 146.99 160.373 146.672 160.24C146.355 160.107 146.068 159.91 145.83 159.662C145.591 159.413 145.406 159.119 145.286 158.796C145.166 158.474 145.114 158.13 145.132 157.786C145.172 157.074 145.482 156.404 145.999 155.912C146.516 155.42 147.2 155.143 147.914 155.137C148.257 155.134 148.597 155.202 148.914 155.335C149.23 155.469 149.516 155.666 149.753 155.914C149.991 156.162 150.175 156.456 150.294 156.778C150.414 157.1 150.466 157.443 150.448 157.786Z" fill="#263238"/>
<path d="M162.387 157.786C162.347 158.499 162.037 159.169 161.52 159.661C161.003 160.153 160.319 160.43 159.605 160.435C159.262 160.437 158.922 160.369 158.605 160.235C158.289 160.101 158.003 159.904 157.766 159.656C157.528 159.408 157.343 159.115 157.222 158.793C157.101 158.472 157.046 158.129 157.062 157.786C157.104 157.075 157.415 156.406 157.931 155.914C158.447 155.422 159.131 155.145 159.844 155.137C160.188 155.133 160.529 155.199 160.847 155.333C161.164 155.466 161.451 155.662 161.689 155.911C161.928 156.159 162.113 156.454 162.233 156.776C162.353 157.099 162.405 157.442 162.387 157.786Z" fill="#263238"/>
<path d="M174.273 157.786C174.231 158.498 173.92 159.167 173.404 159.658C172.888 160.15 172.204 160.428 171.491 160.435C171.148 160.437 170.808 160.369 170.492 160.235C170.175 160.101 169.89 159.904 169.652 159.656C169.414 159.408 169.229 159.115 169.108 158.793C168.987 158.472 168.933 158.129 168.948 157.786C168.991 157.075 169.301 156.406 169.817 155.914C170.334 155.422 171.017 155.145 171.73 155.137C172.074 155.134 172.414 155.202 172.731 155.335C173.048 155.469 173.334 155.665 173.572 155.913C173.811 156.161 173.995 156.455 174.116 156.778C174.236 157.1 174.29 157.443 174.273 157.786Z" fill="#263238"/>
<path d="M186.23 157.786C186.187 158.498 185.877 159.167 185.361 159.658C184.844 160.15 184.161 160.428 183.448 160.435C183.104 160.439 182.763 160.373 182.445 160.24C182.128 160.107 181.841 159.91 181.603 159.662C181.364 159.413 181.179 159.119 181.059 158.796C180.939 158.474 180.887 158.13 180.905 157.786C180.945 157.074 181.255 156.404 181.772 155.912C182.289 155.42 182.973 155.143 183.687 155.137C184.03 155.134 184.371 155.202 184.688 155.335C185.005 155.469 185.291 155.665 185.529 155.913C185.767 156.161 185.952 156.455 186.073 156.778C186.193 157.1 186.247 157.443 186.23 157.786Z" fill="#263238"/>
<path d="M184.423 49.8717C188.119 46.2573 188.315 40.4638 184.861 36.9315C181.406 33.3993 175.61 33.466 171.914 37.0804C168.218 40.6949 168.022 46.4884 171.476 50.0206C174.93 53.5528 180.726 53.4862 184.423 49.8717Z" fill="#4CAF4F"/>
<path d="M195.537 64.3402C193.337 67.2226 190.506 69.5627 187.26 71.1807C184.015 72.7987 180.442 73.6517 176.816 73.6742C173.3 73.704 169.83 72.8682 166.713 71.2404C163.596 69.6126 160.928 67.2429 158.943 64.3402C163.235 60.0661 170.025 57.2756 177.549 57.2756C185.073 57.2756 191.625 60.0661 195.537 64.3402Z" fill="#4CAF4F"/>
<path opacity="0.1" d="M184.423 49.8717C188.119 46.2573 188.315 40.4638 184.861 36.9315C181.406 33.3993 175.61 33.466 171.914 37.0804C168.218 40.6949 168.022 46.4884 171.476 50.0206C174.93 53.5528 180.726 53.4862 184.423 49.8717Z" fill="white"/>
<path opacity="0.1" d="M195.537 64.3402C193.337 67.2226 190.506 69.5627 187.26 71.1807C184.015 72.7987 180.442 73.6517 176.816 73.6742C173.3 73.704 169.83 72.8682 166.713 71.2404C163.596 69.6126 160.928 67.2429 158.943 64.3402C163.235 60.0661 170.025 57.2756 177.549 57.2756C185.073 57.2756 191.625 60.0661 195.537 64.3402Z" fill="white"/>
<path d="M65.6118 125.281C64.7729 127.117 63.8898 129.14 63.1215 131.1C62.3533 133.06 61.5673 135.083 60.8874 137.096C59.4991 141.064 58.4417 145.14 57.726 149.282L57.5317 150.58C57.5132 150.803 57.5341 151.027 57.5936 151.243C57.8019 151.975 58.1302 152.667 58.5649 153.291C59.699 154.908 61.0145 156.39 62.4857 157.707C64.0369 159.15 65.6641 160.508 67.3603 161.778C69.0557 163.085 70.8395 164.356 72.5968 165.557L70.9455 168.657C66.7494 166.828 62.7665 164.545 59.0683 161.848C57.0953 160.409 55.3146 158.724 53.7699 156.832C52.8542 155.707 52.1402 154.431 51.6593 153.062C51.3798 152.206 51.2367 151.312 51.2355 150.413C51.2355 150.201 51.2355 149.892 51.2355 149.741V149.309L51.3238 148.426C51.83 143.825 52.7974 139.287 54.2114 134.879C54.9002 132.707 55.6331 130.544 56.4721 128.433C57.311 126.323 58.1764 124.256 59.2449 122.11L65.6118 125.281Z" fill="#E58A7B"/>
<path d="M71.3517 165.01L77.595 161.848L75.979 168.701C75.979 168.701 71.6961 169.902 69.7092 167.818L71.3517 165.01Z" fill="#E58A7B"/>
<path d="M83.3084 162.97L81.6482 168.639L75.9789 168.701L77.595 161.848L83.3084 162.97Z" fill="#E58A7B"/>
<path d="M92.1214 92.2186C92.4554 93.4424 92.9202 94.6266 93.5078 95.7508C93.3362 95.9455 93.115 96.0902 92.8678 96.1695C92.6207 96.2487 92.3567 96.2597 92.1038 96.2012L92.1214 92.2186Z" fill="#DF5753"/>
<path d="M91.936 92.2715C92.3018 92.2715 92.5983 91.8169 92.5983 91.256C92.5983 90.6952 92.3018 90.2405 91.936 90.2405C91.5702 90.2405 91.2737 90.6952 91.2737 91.256C91.2737 91.8169 91.5702 92.2715 91.936 92.2715Z" fill="#263238"/>
<path d="M91.7417 90.2758L93.084 89.8961C93.084 89.8961 92.4305 90.9381 91.7417 90.2758Z" fill="#263238"/>
<path d="M74.8751 98.7003C75.6787 102.807 76.4823 110.339 73.6035 113.085C73.6035 113.085 74.7338 117.253 82.3724 117.253C90.7703 117.253 86.3815 113.085 86.3815 113.085C81.7984 111.99 81.9132 108.591 82.7167 105.394L74.8751 98.7003Z" fill="#E58A7B"/>
<path d="M72.641 89.3398C73.0649 96.2012 73.1002 99.1153 76.5618 102.639C81.7807 107.937 90.1169 105.924 91.7505 99.1065C93.2253 92.925 92.2892 82.7521 85.5691 80.0234C84.094 79.4158 82.4882 79.1944 80.9037 79.3804C79.3192 79.5664 77.8084 80.1535 76.5141 81.0862C75.2198 82.0189 74.1848 83.2664 73.5071 84.7107C72.8293 86.1549 72.5312 87.7482 72.641 89.3398Z" fill="#E58A7B"/>
<path d="M73.3209 81.6218C69.877 82.8757 65.285 81.9397 67.0865 92.5629C68.9939 103.813 66.0621 107.513 66.0621 107.513C66.0621 107.513 79.1227 110.295 92.457 107.345C92.457 107.345 88.386 100.228 89.5252 94.9826C90.9823 88.3596 89.8343 85.9135 89.8343 85.9135C89.8343 85.9135 78.1601 79.8556 73.3209 81.6218Z" fill="#263238"/>
<path d="M87.8915 92.9162C87.8951 94.2208 88.2687 95.4977 88.9689 96.5986C89.9049 98.0291 91.0088 97.4816 91.2825 95.9628C91.5298 94.6293 91.3443 92.2715 90.1522 91.3532C88.96 90.4348 87.9092 91.3355 87.8915 92.9162Z" fill="#E58A7B"/>
<path d="M70.3274 82.7786C69.3383 79.9969 74.0539 75.714 84.0326 77.4802C94.0112 79.2463 94.4439 87.556 94.4439 87.556L92.4305 85.154L92.5188 87.6796L82.2664 89.6488L70.3274 82.7786Z" fill="#263238"/>
<path d="M71.1751 113.553C71.1162 113.15 71.2171 112.74 71.4563 112.41C71.6955 112.08 72.054 111.857 72.4556 111.787C75.5639 111.275 82.6285 110.233 86.1784 110.728C88.8276 111.099 89.5164 112.635 89.6312 113.898C89.6492 114.119 89.6196 114.341 89.5445 114.55C89.4693 114.759 89.3504 114.949 89.1956 115.108C89.0409 115.267 88.8539 115.391 88.6472 115.472C88.4406 115.552 88.219 115.588 87.9975 115.576L72.6498 114.887C72.288 114.869 71.9436 114.726 71.6749 114.483C71.4061 114.24 71.2296 113.912 71.1751 113.553Z" fill="#4CAF4F"/>
<path opacity="0.6" d="M71.1751 113.553C71.1162 113.15 71.2171 112.74 71.4563 112.41C71.6955 112.08 72.054 111.857 72.4556 111.787C75.5639 111.275 82.6285 110.233 86.1784 110.728C88.8276 111.099 89.5164 112.635 89.6312 113.898C89.6492 114.119 89.6196 114.341 89.5445 114.55C89.4693 114.759 89.3504 114.949 89.1956 115.108C89.0409 115.267 88.8539 115.391 88.6472 115.472C88.4406 115.552 88.219 115.588 87.9975 115.576L72.6498 114.887C72.288 114.869 71.9436 114.726 71.6749 114.483C71.4061 114.24 71.2296 113.912 71.1751 113.553Z" fill="black"/>
<path d="M80.0499 267.825L85.7457 271.781L95.274 258.862L89.5782 254.915L80.0499 267.825Z" fill="#E58A7B"/>
<path d="M66.7686 267.569L72.7823 270.995L81.2156 257.334L75.2019 253.908L66.7686 267.569Z" fill="#E58A7B"/>
<path d="M95.2651 258.862L90.3553 265.52L84.6595 261.573L89.5693 254.915L95.2651 258.862Z" fill="#CF6F64"/>
<path d="M75.1931 253.908L81.2156 257.343L76.8709 264.381L70.8484 260.946L75.1931 253.908Z" fill="#CF6F64"/>
<path d="M84.8538 156.682C84.8538 156.682 107.089 184.702 102.912 211.503C99.548 233.147 80.0322 262.456 80.0322 262.456L70.8572 257.899C77.3243 244.941 82.8432 231.53 87.3705 217.773C88.7666 213.502 89.1741 208.969 88.5622 204.518C87.9503 200.066 86.335 195.812 83.8383 192.076C72.5703 175.624 54.5205 185.417 66.6626 156.682H84.8538Z" fill="#4CAF4F"/>
<path opacity="0.6" d="M84.8538 156.682C84.8538 156.682 107.089 184.702 102.912 211.503C99.548 233.147 80.0322 262.456 80.0322 262.456L70.8572 257.899C77.3243 244.941 82.8432 231.53 87.3705 217.773C88.7666 213.502 89.1741 208.969 88.5622 204.518C87.9503 200.066 86.335 195.812 83.8383 192.076C72.5703 175.624 54.5205 185.417 66.6626 156.682H84.8538Z" fill="black"/>
<path opacity="0.4" d="M95.7597 174.679L92.5276 171.465C92.5276 171.721 98.7886 210.373 100.546 221.234C101.583 218.061 102.377 214.814 102.921 211.521C104.988 198.372 100.67 184.94 95.7597 174.679Z" fill="black"/>
<path d="M94.7794 156.682C94.7794 156.682 121.554 191.899 122.313 213.013C122.94 230.674 93.1723 264.893 93.1723 264.893L84.5182 259.295C84.5182 259.295 101.941 234.993 106.33 215.141C104.634 195.467 68.782 156.682 68.782 156.682H94.7794Z" fill="#4CAF4F"/>
<path opacity="0.6" d="M94.7794 156.682C94.7794 156.682 121.554 191.899 122.313 213.013C122.94 230.674 93.1723 264.893 93.1723 264.893L84.5182 259.295C84.5182 259.295 101.941 234.993 106.33 215.141C104.634 195.467 68.782 156.682 68.782 156.682H94.7794Z" fill="black"/>
<path d="M61.6556 114.657C58.7945 115.337 56.0482 125.74 56.0482 125.74L67.2366 133.21C67.2366 133.21 70.9631 124.98 69.6562 121.377C68.3051 117.624 65.2497 113.801 61.6556 114.657Z" fill="#4CAF4F"/>
<path opacity="0.2" d="M63.8456 121.36L63.0685 130.429L67.2278 133.219C68.3762 130.634 69.2265 127.926 69.7622 125.148L63.8456 121.36Z" fill="black"/>
<path d="M98.0909 114.86C98.0909 114.86 101.394 116.017 94.7794 156.674H66.645C67.1218 145.194 67.1306 138.129 61.6556 114.657C65.5951 113.845 69.5882 113.32 73.6035 113.085C77.8574 112.78 82.1276 112.78 86.3815 113.085C91.8741 113.589 98.0909 114.86 98.0909 114.86Z" fill="#4CAF4F"/>
<path d="M100.952 121.36C101.588 123.126 102.259 125.024 102.965 126.852C103.672 128.68 104.343 130.561 105.058 132.416L107.222 137.961L107.769 139.348L108.052 140.037L108.184 140.381C108.184 140.443 108.184 140.443 108.184 140.434C108.023 140.206 107.812 140.019 107.566 139.886C107.217 139.681 106.823 139.563 106.418 139.542C106.082 139.532 105.747 139.595 105.438 139.727C105.032 139.913 105.032 139.992 105.041 139.984C105.114 139.925 105.179 139.856 105.235 139.78C105.724 139.139 106.147 138.449 106.498 137.723C106.913 136.91 107.31 136.045 107.708 135.171C108.485 133.405 109.2 131.577 109.915 129.731C110.63 127.886 111.31 126.022 111.973 124.141L113.986 118.507L117.386 119.39C116.715 123.417 115.849 127.338 114.807 131.329C114.304 133.316 113.712 135.286 113.041 137.273C112.706 138.27 112.335 139.259 111.911 140.275C111.469 141.377 110.925 142.436 110.286 143.436C110.051 143.773 109.791 144.092 109.509 144.39C109.058 144.877 108.511 145.265 107.902 145.529C107.361 145.761 106.776 145.87 106.189 145.847C105.53 145.823 104.889 145.631 104.325 145.291C103.66 144.876 103.108 144.302 102.718 143.622C102.586 143.392 102.471 143.163 102.391 142.995L102.224 142.659L101.888 141.97L101.217 140.602C100.334 138.765 99.4508 136.91 98.6826 135.047C97.9143 133.184 97.1019 131.294 96.3425 129.396C95.583 127.497 94.9031 125.598 94.2584 123.55L100.952 121.36Z" fill="#E58A7B"/>
<path d="M98.0909 114.86C101.473 115.664 105.279 125.66 105.279 125.66L95.221 134.217C95.221 134.217 88.7128 123.32 90.0286 119.726C91.3973 115.982 93.6756 113.81 98.0909 114.86Z" fill="#4CAF4F"/>
<path d="M115.585 115.346L119.117 112.397L121.572 116.22L119.761 119.408C119.761 119.408 116.883 122.057 114.339 120.706C113.936 119.799 113.839 118.785 114.064 117.817C114.288 116.85 114.822 115.983 115.585 115.346Z" fill="#E58A7B"/>
<path d="M125.492 112.405L125.228 113.368L119.638 114.304L119.09 112.397L125.492 112.405Z" fill="#E58A7B"/>
<path d="M93.861 265.344L83.7764 258.827L85.5867 255.683L96.9165 262.65L93.861 265.344Z" fill="#4CAF4F"/>
<path d="M76.7296 270.536C75.8448 270.428 74.9946 270.126 74.2393 269.653C74.2082 269.642 74.1812 269.622 74.162 269.595C74.1429 269.568 74.1326 269.536 74.1326 269.503C74.1326 269.47 74.1429 269.438 74.162 269.411C74.1812 269.384 74.2082 269.364 74.2393 269.353C74.5131 269.264 76.8885 268.531 77.5773 269.097C77.6548 269.161 77.7136 269.245 77.7477 269.34C77.7819 269.434 77.7901 269.536 77.7716 269.635C77.7593 269.794 77.7067 269.947 77.6186 270.08C77.5305 270.213 77.4099 270.321 77.2683 270.395C77.1029 270.485 76.918 270.533 76.7296 270.536ZM74.7427 269.565C75.8465 270.13 76.7296 270.333 77.1535 270.121C77.2458 270.07 77.3234 269.996 77.3791 269.906C77.4347 269.817 77.4665 269.714 77.4714 269.609C77.4714 269.468 77.4714 269.406 77.3919 269.37C77.021 269.07 75.6964 269.3 74.725 269.565H74.7427Z" fill="#263238"/>
<path d="M74.3011 269.715C74.2545 269.714 74.2101 269.695 74.1775 269.662C74.1644 269.637 74.1575 269.61 74.1575 269.582C74.1575 269.555 74.1644 269.527 74.1775 269.503C74.1775 269.423 74.7515 267.507 75.6522 267.074C75.7673 267.022 75.8922 266.995 76.0187 266.995C76.1451 266.995 76.2701 267.022 76.3852 267.074C76.5092 267.114 76.6165 267.193 76.6901 267.3C76.7637 267.407 76.7994 267.536 76.7914 267.666C76.7296 268.461 75.1135 269.556 74.3718 269.741L74.3011 269.715ZM76.0143 267.304C75.9284 267.307 75.8441 267.328 75.767 267.366C75.2195 267.631 74.7691 268.664 74.5484 269.291C75.3255 268.964 76.394 268.099 76.4293 267.613C76.4293 267.534 76.4293 267.436 76.2262 267.348C76.1601 267.313 76.0884 267.289 76.0143 267.277V267.304Z" fill="#263238"/>
<path d="M89.3309 274.351C88.333 274.351 86.9466 273.07 86.1872 272.284C86.1678 272.257 86.1573 272.225 86.1573 272.192C86.1573 272.158 86.1678 272.126 86.1872 272.099C86.2046 272.071 86.2294 272.047 86.2589 272.032C86.2885 272.016 86.3216 272.009 86.355 272.011C86.7082 272.011 89.7724 272.47 90.2051 273.335C90.251 273.413 90.2751 273.501 90.2751 273.591C90.2751 273.682 90.251 273.77 90.2051 273.848C90.1402 273.982 90.0422 274.098 89.9202 274.185C89.7982 274.271 89.6562 274.325 89.5075 274.342L89.3309 274.351ZM86.77 272.408C87.8827 273.485 88.8629 274.086 89.4192 274.015C89.5166 274.003 89.6095 273.966 89.6895 273.909C89.7696 273.852 89.8344 273.776 89.8784 273.689C89.8982 273.658 89.9087 273.623 89.9087 273.587C89.9087 273.551 89.8982 273.516 89.8784 273.485C89.6488 273.009 88.0151 272.602 86.77 272.408Z" fill="#263238"/>
<path d="M86.8672 272.364C86.669 272.37 86.4707 272.355 86.2755 272.32C86.2483 272.316 86.2225 272.305 86.2009 272.288C86.1792 272.271 86.1623 272.248 86.1519 272.223C86.1387 272.197 86.1318 272.168 86.1318 272.139C86.1318 272.11 86.1387 272.081 86.1519 272.055C86.2049 271.993 87.397 270.554 88.5273 270.457C88.8473 270.432 89.1643 270.533 89.4104 270.739C89.7548 271.039 89.7372 271.304 89.6488 271.472C89.4281 272.073 87.9004 272.364 86.8672 272.364ZM86.6376 272.037C87.6266 272.09 89.2073 271.763 89.4104 271.331C89.4104 271.331 89.4811 271.189 89.2515 270.995C89.1601 270.916 89.0534 270.856 88.9379 270.819C88.8225 270.783 88.7007 270.771 88.5803 270.783C87.8189 270.996 87.1409 271.436 86.6376 272.046V272.037Z" fill="#263238"/>
<path d="M74.5396 268.761L67.0512 266.642C66.9221 266.603 66.7831 266.613 66.6609 266.67C66.5387 266.727 66.4418 266.827 66.3889 266.951L63.8633 272.629C63.804 272.774 63.7762 272.931 63.7816 273.088C63.7871 273.245 63.8257 273.399 63.8949 273.54C63.9641 273.681 64.0624 273.805 64.1833 273.905C64.3042 274.006 64.4449 274.079 64.5963 274.121C67.2455 274.81 68.5171 275.004 71.8109 275.949C73.842 276.514 76.7384 277.565 79.5377 278.36C82.3371 279.155 83.2731 276.426 82.1869 275.843C77.2771 273.247 76.8886 271.428 75.5463 269.485C75.3059 269.133 74.9496 268.877 74.5396 268.761Z" fill="#4CAF4F"/>
<path d="M86.3903 271.251L79.9969 266.836C79.8885 266.757 79.7549 266.721 79.6214 266.734C79.488 266.747 79.3639 266.808 79.2728 266.907L75.0341 271.463C74.9308 271.581 74.8538 271.719 74.8081 271.869C74.7624 272.019 74.7492 272.177 74.7692 272.332C74.7893 272.488 74.8421 272.637 74.9244 272.77C75.0066 272.904 75.1162 273.018 75.246 273.106C77.4978 274.616 78.6635 275.225 81.4805 277.177C83.2466 278.378 86.6641 281.044 89.0483 282.705C91.4326 284.365 93.2076 282.087 92.3598 281.186C88.5627 277.133 87.7326 274.589 87.1056 272.284C86.9968 271.866 86.7433 271.5 86.3903 271.251Z" fill="#4CAF4F"/>
<path d="M81.2067 263.039L69.6827 257.308L70.8749 254.182L83.1848 260.222L81.2067 263.039Z" fill="#4CAF4F"/>
<path d="M66.2211 155.022L65.2497 157.565C65.1526 157.76 65.3822 157.963 65.7089 157.963H94.9207C95.1768 157.963 95.3887 157.839 95.4064 157.68L95.6537 155.155C95.6537 154.987 95.4506 154.837 95.1768 154.837H66.6803C66.5945 154.829 66.508 154.841 66.4281 154.874C66.3482 154.906 66.2772 154.957 66.2211 155.022Z" fill="#4CAF4F"/>
<path opacity="0.4" d="M66.2211 155.022L65.2497 157.565C65.1526 157.76 65.3822 157.963 65.7089 157.963H94.9207C95.1768 157.963 95.3887 157.839 95.4064 157.68L95.6537 155.155C95.6537 154.987 95.4506 154.837 95.1768 154.837H66.6803C66.5945 154.829 66.508 154.841 66.4281 154.874C66.3482 154.906 66.2772 154.957 66.2211 155.022Z" fill="white"/>
<path d="M70.8219 158.21H70.0536C69.9035 158.21 69.7887 158.131 69.7975 158.033L70.1596 154.757C70.1596 154.669 70.3009 154.589 70.451 154.589H71.2193C71.3694 154.589 71.4842 154.669 71.4754 154.757L71.1133 158.033C71.1045 158.131 70.972 158.21 70.8219 158.21Z" fill="#4CAF4F"/>
<path d="M88.8364 158.21H88.077C87.9269 158.21 87.8121 158.131 87.8209 158.033L88.1741 154.757C88.1741 154.669 88.3243 154.589 88.4744 154.589H89.2338C89.3839 154.589 89.5076 154.669 89.4899 154.757L89.1367 158.033C89.0925 158.131 88.9954 158.21 88.8364 158.21Z" fill="#4CAF4F"/>
<path d="M70.1507 307.757C83.2163 307.757 93.8081 306.99 93.8081 306.044C93.8081 305.098 83.2163 304.331 70.1507 304.331C57.0852 304.331 46.4934 305.098 46.4934 306.044C46.4934 306.99 57.0852 307.757 70.1507 307.757Z" fill="#F5F5F5"/>
<path d="M84.5624 303.624C80.3766 302.406 75.7317 300.843 72.9236 299.209C72.8441 299.156 72.7558 299.13 72.6763 299.086V280.135H81.1449C81.7878 280.097 82.3918 279.815 82.8335 279.346C83.2752 278.877 83.5212 278.258 83.5212 277.614C83.5212 276.97 83.2752 276.35 82.8335 275.882C82.3918 275.413 81.7878 275.131 81.1449 275.093H72.7205V188.711H67.634V275.093H59.2184C58.8747 275.072 58.5306 275.122 58.207 275.24C57.8835 275.357 57.5873 275.54 57.3368 275.776C57.0863 276.012 56.8867 276.297 56.7503 276.613C56.6139 276.929 56.5435 277.27 56.5435 277.614C56.5435 277.958 56.6139 278.299 56.7503 278.615C56.8867 278.931 57.0863 279.216 57.3368 279.452C57.5873 279.688 57.8835 279.87 58.207 279.988C58.5306 280.105 58.8747 280.155 59.2184 280.135H67.634V299.059C67.5545 299.059 67.475 299.13 67.3956 299.183C64.5433 300.843 59.9337 302.406 55.7479 303.598C55.4652 303.683 55.2224 303.867 55.0635 304.116C54.9046 304.365 54.8402 304.663 54.8818 304.956C54.9234 305.248 55.0684 305.516 55.2904 305.711C55.5125 305.906 55.7969 306.014 56.0923 306.018H84.218C84.5002 305.998 84.7674 305.883 84.9748 305.69C85.1822 305.498 85.3173 305.24 85.3576 304.96C85.3979 304.68 85.3409 304.395 85.1962 304.152C85.0515 303.909 84.8277 303.723 84.5624 303.624Z" fill="#E0E0E0"/>
<path d="M85.8605 179.916H54.4587C51.9324 179.916 49.8844 181.964 49.8844 184.49V193.824C49.8844 196.35 51.9324 198.398 54.4587 198.398H85.8605C88.3868 198.398 90.4348 196.35 90.4348 193.824V184.49C90.4348 181.964 88.3868 179.916 85.8605 179.916Z" fill="#4CAF4F"/>
<path d="M54.1672 198.407V200.014C54.1672 201.339 55.6066 202.416 57.3728 202.416H82.9817C84.7478 202.416 86.1872 201.339 86.1872 200.014V198.407H54.1672Z" fill="#4CAF4F"/>
<path opacity="0.3" d="M54.1672 198.407V200.014C54.1672 201.339 55.6066 202.416 57.3728 202.416H82.9817C84.7478 202.416 86.1872 201.339 86.1872 200.014V198.407H54.1672Z" fill="white"/>
</svg>
