<svg width="155" height="24" viewBox="0 0 155 24" fill="none" xmlns="http://www.w3.org/2000/svg"><path d="m18.786 13.134-5.39 9.233-5.392-9.233zm1.444-.825H6.554L13.395 24zM28.16 1.65l5.39 9.233H22.768zm0-1.65-6.842 11.691H35z" fill="#fff"/><path d="m0 0 5.736 10.34L12.004.26zm13.396.906 6.016 10.283H7.367zm7.566 12.528L26.984 24H14.653l6.121-10.566zm1.303-.64 5.894 10.404 5.976-10.404z" fill="#4caf4f"/><path d="M60.033 1.669v20.364h-3.72L47.456 9.216h-.15v12.817H43V1.669h3.778l8.79 12.807h.18V1.669zM70.47 22.33q-2.356 0-4.056-.954a6.54 6.54 0 0 1-2.605-2.724q-.915-1.77-.915-4.186 0-2.357.915-4.136.915-1.78 2.575-2.775 1.671-.994 3.918-.994 1.51 0 2.813.487a6.2 6.2 0 0 1 2.287 1.442q.985.965 1.532 2.426.547 1.452.547 3.4v1.164H64.584v-2.625h8.91q0-.915-.398-1.62a2.85 2.85 0 0 0-1.104-1.104q-.696-.408-1.62-.408-.966 0-1.711.447-.735.438-1.154 1.184a3.34 3.34 0 0 0-.427 1.64v2.496q0 1.134.418 1.959.428.825 1.203 1.272t1.84.448q.704 0 1.292-.199a2.7 2.7 0 0 0 1.004-.596q.417-.398.636-.975l3.918.259a5.35 5.35 0 0 1-1.223 2.465q-.915 1.045-2.367 1.631-1.44.577-3.33.577M83.511 6.76l2.804 5.34 2.874-5.34h4.345l-4.425 7.636 4.544 7.637h-4.325l-3.013-5.28-2.963 5.28h-4.375l4.534-7.637-4.375-7.636zm18.892 15.57q-2.346 0-4.037-.993a6.7 6.7 0 0 1-2.585-2.785q-.895-1.78-.895-4.096 0-2.346.905-4.117a6.7 6.7 0 0 1 2.595-2.774q1.68-1.005 3.997-1.004 1.999 0 3.5.726t2.377 2.038q.874 1.313.964 3.083h-3.997q-.17-1.144-.895-1.84-.716-.705-1.879-.706-.985 0-1.72.537-.726.527-1.134 1.541t-.408 2.456q0 1.462.398 2.486.408 1.024 1.144 1.561.735.537 1.72.537.726 0 1.302-.298.587-.299.965-.865.387-.578.507-1.382h3.997q-.099 1.75-.954 3.082-.846 1.323-2.337 2.068t-3.53.746m16.493-.001q-2.356 0-4.057-.954a6.54 6.54 0 0 1-2.605-2.724q-.914-1.77-.914-4.186 0-2.357.914-4.136.915-1.78 2.576-2.775 1.67-.994 3.917-.994 1.512 0 2.814.487a6.2 6.2 0 0 1 2.287 1.442q.984.965 1.531 2.426.547 1.452.547 3.4v1.164H113.01v-2.625h8.909q0-.915-.398-1.62a2.85 2.85 0 0 0-1.103-1.104q-.697-.408-1.621-.408-.964 0-1.71.447a3.14 3.14 0 0 0-1.154 1.184 3.34 3.34 0 0 0-.427 1.64v2.496q0 1.134.417 1.959.428.825 1.203 1.272t1.84.448a4 4 0 0 0 1.293-.199 2.7 2.7 0 0 0 1.004-.596q.417-.398.636-.975l3.918.259a5.36 5.36 0 0 1-1.223 2.465q-.915 1.045-2.367 1.631-1.441.577-3.331.577m14.01-9.128v8.83h-4.236V6.76h4.037v2.694h.179a4.26 4.26 0 0 1 1.701-2.108q1.193-.785 2.893-.785 1.591 0 2.774.696t1.84 1.989q.656 1.283.656 3.062v9.725h-4.236v-8.97q.01-1.401-.716-2.187-.726-.795-1.998-.795-.855 0-1.512.368a2.56 2.56 0 0 0-1.014 1.074q-.357.696-.368 1.68m21.306-6.443v3.182h-9.197V6.76zm-7.109-3.66h4.235v14.24q0 .585.179.914.18.318.498.448.327.129.755.129.299 0 .597-.05l.457-.09.666 3.153q-.318.099-.894.228-.577.14-1.402.17-1.531.06-2.685-.408-1.143-.468-1.78-1.452-.636-.984-.626-2.486z" fill="#fff"/></svg>